<svg xmlns="http://www.w3.org/2000/svg" width="129.597" height="32.627" viewBox="0 0 129.597 32.627">
  <g id="app-store" transform="translate(-0.001 -0.001)">
    <g id="_Group_" data-name="&lt;Group&gt;" transform="translate(0.001 0.37)">
      <g id="_Group_2" data-name="&lt;Group&gt;" transform="translate(0 0)">
        <g id="_Group_3" data-name="&lt;Group&gt;">
          <path id="_Path_" data-name="&lt;Path&gt;" d="M29.242,22.213a6.445,6.445,0,0,1,3.069-5.407,6.6,6.6,0,0,0-5.2-2.81c-2.187-.23-4.307,1.309-5.421,1.309-1.136,0-2.852-1.286-4.7-1.248a6.922,6.922,0,0,0-5.825,3.552C8.649,21.97,10.528,28.379,12.94,31.9c1.207,1.726,2.618,3.654,4.464,3.586,1.806-.075,2.481-1.152,4.661-1.152,2.16,0,2.793,1.152,4.676,1.108,1.938-.031,3.159-1.734,4.324-3.476a14.275,14.275,0,0,0,1.977-4.027A6.228,6.228,0,0,1,29.242,22.213Z" transform="translate(-9.972 -7.133)"/>
          <path id="_Path_2" data-name="&lt;Path&gt;" d="M23.019,13.266A6.345,6.345,0,0,0,24.47,8.72a6.456,6.456,0,0,0-4.177,2.161A6.038,6.038,0,0,0,18.8,15.259,5.338,5.338,0,0,0,23.019,13.266Z" transform="translate(-7.306 -8.72)"/>
        </g>
      </g>
      <g id="Group_419" data-name="Group 419" transform="translate(31.848 11.917)">
        <path id="Path_28355" data-name="Path 28355" d="M44.683,29.879H38.518l-1.48,4.371H34.427l5.839-16.172h2.713L48.817,34.25H46.162Zm-5.526-2.017h4.886l-2.409-7.094h-.067Z" transform="translate(-34.427 -17.808)"/>
        <path id="Path_28356" data-name="Path 28356" d="M57.738,27.367c0,3.664-1.961,6.018-4.92,6.018a4,4,0,0,1-3.71-2.063h-.056v5.84h-2.42V21.472h2.343v1.961h.045a4.182,4.182,0,0,1,3.754-2.084C55.765,21.348,57.738,23.714,57.738,27.367Zm-2.488,0c0-2.387-1.234-3.956-3.116-3.956-1.849,0-3.093,1.6-3.093,3.956,0,2.376,1.244,3.967,3.093,3.967C54.016,31.334,55.25,29.776,55.25,27.367Z" transform="translate(-30.738 -16.821)"/>
        <path id="Path_28357" data-name="Path 28357" d="M67.7,27.367c0,3.664-1.961,6.018-4.92,6.018a4,4,0,0,1-3.71-2.063h-.056v5.84H56.6V21.472h2.343v1.961h.045a4.182,4.182,0,0,1,3.754-2.084C65.73,21.348,67.7,23.714,67.7,27.367Zm-2.488,0c0-2.387-1.234-3.956-3.116-3.956-1.849,0-3.093,1.6-3.093,3.956,0,2.376,1.244,3.967,3.093,3.967,1.882,0,3.116-1.558,3.116-3.967Z" transform="translate(-27.726 -16.821)"/>
        <path id="Path_28358" data-name="Path 28358" d="M72.285,29.806c.179,1.6,1.737,2.657,3.866,2.657,2.04,0,3.507-1.053,3.507-2.5,0-1.255-.885-2.007-2.981-2.522l-2.1-.5c-2.97-.717-4.348-2.106-4.348-4.36,0-2.79,2.432-4.707,5.884-4.707,3.417,0,5.76,1.917,5.839,4.707H79.514c-.146-1.614-1.48-2.588-3.43-2.588s-3.284.986-3.284,2.42c0,1.143.852,1.816,2.936,2.331l1.782.437c3.318.785,4.7,2.117,4.7,4.483,0,3.025-2.41,4.92-6.243,4.92-3.586,0-6.008-1.85-6.164-4.775Z" transform="translate(-23.733 -17.871)"/>
        <path id="Path_28359" data-name="Path 28359" d="M84.309,19.3v2.79h2.242v1.917H84.309v6.5c0,1.01.449,1.48,1.435,1.48a7.562,7.562,0,0,0,.8-.056v1.905a6.646,6.646,0,0,1-1.344.112c-2.387,0-3.318-.9-3.318-3.183V24.007H80.163V22.09h1.714V19.3Z" transform="translate(-20.603 -17.439)"/>
        <path id="Path_28360" data-name="Path 28360" d="M86.065,27.372c0-3.71,2.185-6.041,5.592-6.041s5.593,2.331,5.593,6.041-2.163,6.041-5.593,6.041S86.065,31.092,86.065,27.372Zm8.719,0c0-2.545-1.166-4.047-3.127-4.047s-3.126,1.513-3.126,4.047c0,2.555,1.165,4.045,3.126,4.045s3.127-1.49,3.127-4.045Z" transform="translate(-18.819 -16.825)"/>
        <path id="Path_28361" data-name="Path 28361" d="M96.186,21.471h2.308v2.007h.056a2.812,2.812,0,0,1,2.836-2.13,3.732,3.732,0,0,1,.829.09V23.7a3.383,3.383,0,0,0-1.087-.146,2.439,2.439,0,0,0-2.522,2.713v6.993h-2.42Z" transform="translate(-15.759 -16.821)"/>
        <path id="Path_28362" data-name="Path 28362" d="M111.853,29.8c-.326,2.14-2.41,3.609-5.077,3.609-3.43,0-5.559-2.3-5.559-5.985s2.14-6.1,5.457-6.1c3.262,0,5.313,2.241,5.313,5.816v.829H103.66v.146a3.071,3.071,0,0,0,3.172,3.34,2.667,2.667,0,0,0,2.723-1.658Zm-8.181-3.519h5.895a2.835,2.835,0,0,0-2.892-2.992,2.985,2.985,0,0,0-3,2.992Z" transform="translate(-14.239 -16.825)"/>
      </g>
    </g>
    <g id="_Group_4" data-name="&lt;Group&gt;" transform="translate(33.469 0.001)">
      <g id="Group_421" data-name="Group 421" transform="translate(0 0)">
        <path id="Path_28363" data-name="Path 28363" d="M38.478,8.733a3.438,3.438,0,0,1,3.656,3.861c0,2.482-1.342,3.909-3.656,3.909H35.671V8.733Zm-1.6,6.672h1.465a2.443,2.443,0,0,0,2.563-2.795,2.45,2.45,0,0,0-2.563-2.779H36.878Z" transform="translate(-35.671 -8.35)"/>
        <path id="Path_28364" data-name="Path 28364" d="M41.684,13.151a2.778,2.778,0,1,1,5.531,0,2.778,2.778,0,1,1-5.531,0Zm4.34,0c0-1.271-.571-2.014-1.573-2.014s-1.572.743-1.572,2.014.566,2.019,1.572,2.019,1.573-.743,1.573-2.019Z" transform="translate(-33.857 -7.932)"/>
        <path id="Path_28365" data-name="Path 28365" d="M53.086,16.059h-1.2L50.673,11.74h-.092l-1.207,4.319H48.186l-1.616-5.864h1.174l1.05,4.475h.086l1.206-4.475H51.2L52.4,14.669h.092l1.045-4.475H54.7Z" transform="translate(-32.377 -7.906)"/>
        <path id="Path_28366" data-name="Path 28366" d="M53.854,10.222h1.114v.932h.086a1.755,1.755,0,0,1,1.75-1.045,1.907,1.907,0,0,1,2.03,2.181v3.8H57.676V12.581c0-.942-.41-1.411-1.265-1.411a1.345,1.345,0,0,0-1.4,1.486v3.431H53.854Z" transform="translate(-30.175 -7.933)"/>
        <path id="Path_28367" data-name="Path 28367" d="M59.094,8.437h1.157V16.59H59.094Z" transform="translate(-28.591 -8.437)"/>
        <path id="Path_28368" data-name="Path 28368" d="M61.221,13.151a2.778,2.778,0,1,1,5.531,0,2.779,2.779,0,1,1-5.531,0Zm4.34,0c0-1.271-.571-2.014-1.573-2.014s-1.572.743-1.572,2.014.566,2.019,1.572,2.019,1.573-.743,1.573-2.019Z" transform="translate(-27.952 -7.932)"/>
        <path id="Path_28369" data-name="Path 28369" d="M66.4,14.427c0-1.056.786-1.664,2.181-1.751l1.588-.092v-.506c0-.619-.41-.969-1.2-.969-.646,0-1.094.237-1.222.652h-1.12c.118-1.007,1.066-1.653,2.4-1.653,1.47,0,2.3.732,2.3,1.971v4.007H70.209v-.824h-.092a1.973,1.973,0,0,1-1.761.921A1.771,1.771,0,0,1,66.4,14.427Zm3.769-.5v-.49l-1.432.092c-.808.054-1.174.329-1.174.846s.458.835,1.087.835a1.382,1.382,0,0,0,1.518-1.282Z" transform="translate(-26.382 -7.932)"/>
        <path id="Path_28370" data-name="Path 28370" d="M71.348,13.656c0-1.853.953-3.027,2.434-3.027a1.933,1.933,0,0,1,1.8,1.029h.086V8.437h1.157V16.59H75.715v-.926h-.092a2.035,2.035,0,0,1-1.841,1.023C72.291,16.687,71.348,15.513,71.348,13.656Zm1.2,0c0,1.244.586,1.992,1.567,1.992s1.578-.759,1.578-1.987-.609-1.992-1.578-1.992-1.567.754-1.567,1.987Z" transform="translate(-24.887 -8.437)"/>
        <path id="Path_28371" data-name="Path 28371" d="M79.233,13.151a2.778,2.778,0,1,1,5.531,0,2.778,2.778,0,1,1-5.531,0Zm4.34,0c0-1.271-.571-2.014-1.573-2.014s-1.572.743-1.572,2.014.566,2.019,1.572,2.019S83.574,14.427,83.574,13.151Z" transform="translate(-22.507 -7.932)"/>
        <path id="Path_28372" data-name="Path 28372" d="M84.669,10.222h1.114v.932h.086a1.755,1.755,0,0,1,1.75-1.045,1.907,1.907,0,0,1,2.03,2.181v3.8H88.492V12.581c0-.942-.41-1.411-1.265-1.411a1.345,1.345,0,0,0-1.4,1.486v3.431H84.669Z" transform="translate(-20.86 -7.933)"/>
        <path id="Path_28373" data-name="Path 28373" d="M94,9.074V10.56h1.27v.975H94v3.015c0,.614.253.883.829.883a3.863,3.863,0,0,0,.441-.027v.964a3.8,3.8,0,0,1-.63.059c-1.287,0-1.8-.453-1.8-1.583V11.535h-.931V10.56h.931V9.074Z" transform="translate(-18.671 -8.245)"/>
        <path id="Path_28374" data-name="Path 28374" d="M95.7,8.437h1.147v3.232h.092a1.8,1.8,0,0,1,1.788-1.05,1.932,1.932,0,0,1,2.02,2.186V16.59H99.592v-3.5c0-.937-.436-1.411-1.254-1.411a1.37,1.37,0,0,0-1.477,1.487V16.59H95.7Z" transform="translate(-17.524 -8.437)"/>
        <path id="Path_28375" data-name="Path 28375" d="M105.986,14.5a2.381,2.381,0,0,1-2.541,1.7,2.664,2.664,0,0,1-2.709-3.027,2.7,2.7,0,0,1,2.7-3.064c1.632,0,2.616,1.115,2.616,2.956v.4h-4.141v.065a1.55,1.55,0,0,0,1.562,1.68,1.406,1.406,0,0,0,1.4-.711Zm-4.071-1.89h2.962a1.415,1.415,0,0,0-1.443-1.519,1.5,1.5,0,0,0-1.518,1.519Z" transform="translate(-16.011 -7.932)"/>
      </g>
    </g>
  </g>
</svg>
