<svg id="app-store-white" xmlns="http://www.w3.org/2000/svg" width="199.38" height="50.196" viewBox="0 0 199.38 50.196">
  <g id="_Group_" data-name="&lt;Group&gt;" transform="translate(0 0.568)">
    <g id="_Group_2" data-name="&lt;Group&gt;" transform="translate(0 0)">
      <g id="_Group_3" data-name="&lt;Group&gt;">
        <path id="_Path_" data-name="&lt;Path&gt;" d="M39.618,26.65a9.915,9.915,0,0,1,4.721-8.319,10.149,10.149,0,0,0-8-4.323c-3.364-.353-6.626,2.013-8.34,2.013-1.748,0-4.387-1.978-7.23-1.92a10.649,10.649,0,0,0-8.961,5.465c-3.875,6.709-.985,16.568,2.727,21.991,1.857,2.655,4.027,5.621,6.867,5.516,2.779-.115,3.817-1.772,7.171-1.772,3.323,0,4.3,1.772,7.195,1.705,2.982-.048,4.861-2.667,6.653-5.348a21.962,21.962,0,0,0,3.042-6.2A9.581,9.581,0,0,1,39.618,26.65Z" transform="translate(-9.972 -3.449)" fill="#fff"/>
        <path id="_Path_2" data-name="&lt;Path&gt;" d="M25.3,15.714A9.762,9.762,0,0,0,27.528,8.72,9.932,9.932,0,0,0,21.1,12.045,9.289,9.289,0,0,0,18.81,18.78,8.212,8.212,0,0,0,25.3,15.714Z" transform="translate(-1.122 -8.72)" fill="#fff"/>
      </g>
    </g>
    <g id="Group_419" data-name="Group 419" transform="translate(48.997 18.334)">
      <path id="Path_28355" data-name="Path 28355" d="M50.2,36.233H40.721l-2.277,6.725H34.427L43.41,18.078h4.173l8.982,24.879H52.48Zm-8.5-3.1h7.517L45.515,22.216h-.1Z" transform="translate(-34.427 -17.663)" fill="#fff"/>
      <path id="Path_28356" data-name="Path 28356" d="M63.718,30.61c0,5.637-3.017,9.258-7.57,9.258a6.149,6.149,0,0,1-5.707-3.174h-.086v8.984H46.631V21.539h3.6v3.017H50.3a6.434,6.434,0,0,1,5.776-3.207C60.683,21.349,63.718,24.989,63.718,30.61Zm-3.827,0c0-3.672-1.9-6.087-4.794-6.087-2.845,0-4.758,2.465-4.758,6.087,0,3.655,1.913,6.1,4.758,6.1C57.993,36.712,59.891,34.315,59.891,30.61Z" transform="translate(-22.181 -14.384)" fill="#fff"/>
      <path id="Path_28357" data-name="Path 28357" d="M73.683,30.61c0,5.637-3.017,9.258-7.57,9.258a6.149,6.149,0,0,1-5.707-3.174h-.086v8.984H56.6V21.539h3.6v3.017h.068a6.434,6.434,0,0,1,5.776-3.207C70.648,21.349,73.683,24.988,73.683,30.61Zm-3.827,0c0-3.672-1.9-6.087-4.794-6.087-2.845,0-4.758,2.465-4.758,6.087,0,3.655,1.913,6.1,4.758,6.1,2.9,0,4.794-2.4,4.794-6.1Z" transform="translate(-12.181 -14.384)" fill="#fff"/>
      <path id="Path_28358" data-name="Path 28358" d="M73.619,36.233c.276,2.467,2.673,4.087,5.948,4.087,3.138,0,5.4-1.62,5.4-3.845,0-1.931-1.362-3.087-4.586-3.88l-3.224-.777c-4.569-1.1-6.689-3.24-6.689-6.707,0-4.293,3.741-7.241,9.053-7.241,5.257,0,8.861,2.948,8.982,7.241H84.74c-.225-2.483-2.277-3.982-5.277-3.982s-5.052,1.516-5.052,3.723c0,1.759,1.311,2.794,4.518,3.586l2.741.673c5.1,1.207,7.226,3.258,7.226,6.9,0,4.655-3.708,7.57-9.6,7.57-5.517,0-9.243-2.847-9.483-7.347Z" transform="translate(1.077 -17.871)" fill="#fff"/>
      <path id="Path_28359" data-name="Path 28359" d="M86.541,19.3v4.293H89.99v2.949H86.541v10c0,1.553.691,2.277,2.207,2.277a11.634,11.634,0,0,0,1.225-.086v2.931a10.225,10.225,0,0,1-2.068.172c-3.672,0-5.1-1.379-5.1-4.9v-10.4H80.163V23.592H82.8V19.3Z" transform="translate(11.468 -16.437)" fill="#fff"/>
      <path id="Path_28360" data-name="Path 28360" d="M86.065,30.625c0-5.707,3.361-9.294,8.6-9.294,5.259,0,8.6,3.586,8.6,9.294,0,5.723-3.328,9.294-8.6,9.294S86.065,36.347,86.065,30.625Zm13.414,0c0-3.915-1.794-6.226-4.811-6.226s-4.809,2.328-4.809,6.226c0,3.931,1.792,6.224,4.809,6.224s4.811-2.293,4.811-6.224Z" transform="translate(17.391 -14.399)" fill="#fff"/>
      <path id="Path_28361" data-name="Path 28361" d="M96.186,21.539h3.551v3.087h.086a4.326,4.326,0,0,1,4.363-3.277,5.742,5.742,0,0,1,1.276.139v3.483a5.2,5.2,0,0,0-1.673-.225,3.752,3.752,0,0,0-3.88,4.173V39.678H96.186Z" transform="translate(27.547 -14.384)" fill="#fff"/>
      <path id="Path_28362" data-name="Path 28362" d="M117.58,34.365c-.5,3.293-3.708,5.553-7.811,5.553-5.277,0-8.552-3.535-8.552-9.207,0-5.69,3.293-9.38,8.4-9.38,5.019,0,8.174,3.447,8.174,8.947v1.276H104.976v.225a4.724,4.724,0,0,0,4.88,5.138,4.1,4.1,0,0,0,4.189-2.551Zm-12.586-5.414h9.069a4.362,4.362,0,0,0-4.449-4.6,4.592,4.592,0,0,0-4.619,4.6Z" transform="translate(32.596 -14.399)" fill="#fff"/>
    </g>
  </g>
  <g id="_Group_4" data-name="&lt;Group&gt;" transform="translate(51.488 0)">
    <g id="Group_421" data-name="Group 421" transform="translate(0 0)">
      <path id="Path_28363" data-name="Path 28363" d="M39.989,8.738a5.288,5.288,0,0,1,5.625,5.94c0,3.819-2.064,6.014-5.625,6.014H35.671V8.738ZM37.528,19h2.254a3.758,3.758,0,0,0,3.942-4.3,3.769,3.769,0,0,0-3.942-4.275H37.528Z" transform="translate(-35.671 -8.149)" fill="#fff"/>
      <path id="Path_28364" data-name="Path 28364" d="M41.691,14.789a4.274,4.274,0,1,1,8.509,0,4.275,4.275,0,1,1-8.509,0Zm6.678,0c0-1.956-.878-3.1-2.42-3.1s-2.418,1.144-2.418,3.1c0,1.971.871,3.106,2.418,3.106s2.42-1.143,2.42-3.106Z" transform="translate(-29.65 -6.76)" fill="#fff"/>
      <path id="Path_28365" data-name="Path 28365" d="M56.595,19.216H54.748l-1.865-6.644h-.141l-1.857,6.644H49.056l-2.487-9.022h1.806l1.616,6.884h.133l1.855-6.884h1.708l1.855,6.884h.141l1.608-6.884h1.78Z" transform="translate(-24.734 -6.673)" fill="#fff"/>
      <path id="Path_28366" data-name="Path 28366" d="M53.854,10.287h1.714V11.72H55.7a2.7,2.7,0,0,1,2.692-1.607,2.934,2.934,0,0,1,3.123,3.355v5.84h-1.78V13.915c0-1.45-.63-2.171-1.947-2.171a2.07,2.07,0,0,0-2.154,2.286v5.278h-1.78Z" transform="translate(-17.425 -6.765)" fill="#fff"/>
      <path id="Path_28367" data-name="Path 28367" d="M59.094,8.437h1.78V20.98h-1.78Z" transform="translate(-12.166 -8.437)" fill="#fff"/>
      <path id="Path_28368" data-name="Path 28368" d="M61.228,14.789a4.274,4.274,0,1,1,8.51,0,4.275,4.275,0,1,1-8.51,0Zm6.678,0c0-1.956-.878-3.1-2.42-3.1s-2.418,1.144-2.418,3.1c0,1.971.871,3.106,2.418,3.106s2.42-1.143,2.42-3.106Z" transform="translate(-10.045 -6.76)" fill="#fff"/>
      <path id="Path_28369" data-name="Path 28369" d="M66.4,16.752c0-1.624,1.209-2.56,3.355-2.693l2.444-.141V13.14c0-.953-.63-1.491-1.847-1.491-.994,0-1.683.365-1.88,1H66.749c.182-1.55,1.64-2.543,3.686-2.543,2.262,0,3.537,1.126,3.537,3.032V19.3H72.259V18.036h-.141a3.035,3.035,0,0,1-2.71,1.416,2.725,2.725,0,0,1-3.007-2.7Zm5.8-.771v-.754l-2.2.141c-1.242.083-1.806.506-1.806,1.3,0,.812.7,1.284,1.673,1.284A2.127,2.127,0,0,0,72.2,15.981Z" transform="translate(-4.834 -6.76)" fill="#fff"/>
      <path id="Path_28370" data-name="Path 28370" d="M71.348,16.466c0-2.851,1.465-4.657,3.745-4.657a2.973,2.973,0,0,1,2.767,1.583h.133V8.437h1.78V20.98H78.067V19.555h-.141a3.131,3.131,0,0,1-2.833,1.574C72.8,21.129,71.348,19.323,71.348,16.466Zm1.839,0c0,1.913.9,3.065,2.41,3.065s2.428-1.168,2.428-3.057-.937-3.065-2.428-3.065-2.411,1.159-2.411,3.057Z" transform="translate(0.131 -8.437)" fill="#fff"/>
      <path id="Path_28371" data-name="Path 28371" d="M79.24,14.789a4.274,4.274,0,1,1,8.509,0,4.275,4.275,0,1,1-8.509,0Zm6.678,0c0-1.956-.878-3.1-2.42-3.1s-2.418,1.144-2.418,3.1c0,1.971.871,3.106,2.418,3.106S85.918,16.752,85.918,14.789Z" transform="translate(8.03 -6.76)" fill="#fff"/>
      <path id="Path_28372" data-name="Path 28372" d="M84.669,10.287h1.714V11.72h.133a2.7,2.7,0,0,1,2.692-1.607,2.934,2.934,0,0,1,3.123,3.355v5.84h-1.78V13.915c0-1.45-.63-2.171-1.947-2.171A2.07,2.07,0,0,0,86.45,14.03v5.278h-1.78Z" transform="translate(13.499 -6.765)" fill="#fff"/>
      <path id="Path_28373" data-name="Path 28373" d="M95.125,9.074v2.287H97.08v1.5H95.125V17.5c0,.945.389,1.359,1.276,1.359a5.944,5.944,0,0,0,.679-.041V20.3a5.841,5.841,0,0,1-.968.091c-1.98,0-2.769-.7-2.769-2.436V12.861H91.911v-1.5h1.432V9.074Z" transform="translate(20.765 -7.798)" fill="#fff"/>
      <path id="Path_28374" data-name="Path 28374" d="M95.7,8.437h1.765v4.972h.141a2.776,2.776,0,0,1,2.751-1.616,2.972,2.972,0,0,1,3.107,3.363V20.98h-1.782V15.595c0-1.441-.671-2.171-1.929-2.171a2.108,2.108,0,0,0-2.272,2.287V20.98H95.7Z" transform="translate(24.572 -8.437)" fill="#fff"/>
      <path id="Path_28375" data-name="Path 28375" d="M108.826,16.868a3.662,3.662,0,0,1-3.909,2.61,4.1,4.1,0,0,1-4.167-4.657,4.161,4.161,0,0,1,4.16-4.713c2.51,0,4.025,1.715,4.025,4.548v.621h-6.37v.1a2.385,2.385,0,0,0,2.4,2.585,2.162,2.162,0,0,0,2.146-1.094Zm-6.263-2.907h4.557a2.177,2.177,0,0,0-2.221-2.337,2.307,2.307,0,0,0-2.336,2.337Z" transform="translate(29.596 -6.76)" fill="#fff"/>
    </g>
  </g>
</svg>
