<svg xmlns="http://www.w3.org/2000/svg" xmlns:xlink="http://www.w3.org/1999/xlink" width="922.996" height="949" viewBox="0 0 922.996 949">
  <style>
    @keyframes pulse {
      0% {
        -webkit-transform: scale(1);
        transform: scale(1);
      }
      70% {
        -webkit-transform: scale(1.5);
        transform: scale(1.5);
      }
      100% {
        -webkit-transform: scale(1);
        transform: scale(1);
      }
    } 

    @-webkit-keyframes floating-back {
      from { -webkit-transform: translate(0,  0px); transform: translate(0,  0px); }
      65%  { -webkit-transform: translate(0, -15px); transform: translate(0, -15px); }
      to   { -webkit-transform: translate(0, 0px); transform: translate(0, 0px); }    
  }

  #h-tiktok, #h-facebook, #h-twitter, #h-instagram, #h-youtube {
    animation-duration: 3s; 
    animation-name: floating-back; 
    animation-iteration-count: infinite; 
    animation-timing-function: ease-in-out;
  } 

  #h-youtube {
    animation-delay: .5s;  
    animation-duration: 3s;  
  }

  #h-facebook {
    animation-delay: 1s;  
    animation-duration: 4s;   
  }

  #h-twitter {
    animation-delay: 1.5s;  
    animation-duration: 5s;   
  }

  #h-love, #h-bump {
    animation: pulse 1.5s ease-in-out infinite;
  -webkit-animation: pulse 1.5s ease-in-out infinite;
  -webkit-transform-origin: center; -ms-transform-origin: center; transform-origin: center; transform-box: fill-box;
  }

  #h-bump {
    animation: pulse 2s ease-in-out infinite;
  }

  </style> 
  
  <defs>
    <clipPath id="clip-path">
      <path id="Path_30510" data-name="Path 30510" d="M435.187,919c-.406-5.486-.869-10.967-1.169-16.459a4.823,4.823,0,0,1,.842-3.283c2.9-3.049,3.529-6.878,4.434-10.735,1.418-6.048,1.624-12.168,1.985-18.313.191-3.25,1.43-6.449,1.53-9.692.163-5.272.94-10.505.511-15.837a33.673,33.673,0,0,1,1.077-10.058c1.3-5.619,3.128-11.113,4.53-16.711a20.682,20.682,0,0,1,5.869-10.5,4.867,4.867,0,0,0,1.681-4.183c-.312-4.717-.294-9.47-.85-14.156-1.713-14.48-3.608-28.936-5.5-43.393a33.633,33.633,0,0,0-1.358-5.739,245.614,245.614,0,0,1-8.265-33.256,23.353,23.353,0,0,0-1.759-6.036,115.079,115.079,0,0,1-9.779-35.585c-1.584-13.1-4.975-25.792-8.4-38.477-2.431-9-4.871-18-7.57-26.927a115.812,115.812,0,0,0-4.452-10.947c-3.856-9.215-7.647-18.461-11.626-27.625-1.775-4.086-3.818-8.069-5.964-11.976-1.262-2.3-1.7-2.246-4.105-1.089q-6.383,3.071-12.77,6.133c-3.21,1.539-5.925.35-8.321-1.725a21.839,21.839,0,0,1-7.194-13.67,17.917,17.917,0,0,0-.559-3.072c-1.055-3.054-1.565-3.4-4.866-3.409q-5.724-.017-11.447.074a94.129,94.129,0,0,1-39.522-8.006c-7.935-3.472-15.571-7.622-23.359-11.43a92.521,92.521,0,0,0-9.271-4.272c-6.572-2.356-13.074-4.771-18.938-8.691a9.786,9.786,0,0,0-4.467-1.145,39.4,39.4,0,0,1-21.371-8.223c-6.114-4.737-12.621-8.972-19-13.356-4.117-2.826-8.339-5.5-12.491-8.276-11.148-7.461-22.353-14.836-33.406-22.437-16.92-11.639-33.45-23.835-48.388-37.961-13-12.29-25.46-25.139-38.264-37.633-8.375-8.172-16.71-16.413-25.5-24.124a193.216,193.216,0,0,0-18.679-13.845c-3.9-2.665-6.727-6.219-9.427-9.887-1.192-1.62-1.7-3.817-2.245-5.828-2.914-10.762-6.309-21.436-8.435-32.355-1.9-9.766-2.621-19.79-3.387-29.736-.623-8.115-.431-16.29-.81-24.43-.365-7.85-.812-15.709-1.606-23.526-.342-3.357-1.7-6.6-2.513-9.919-1.33-5.442-.6-10.5,3.4-14.655a7.6,7.6,0,0,0,2.27-6.015c-.143-3.414-.107-6.841-.016-10.259.186-7,3.519-10.727,10.3-12.462,7.887-2.021,15.671-4.441,23.525-6.588,2.658-.726,4.045-2.172,3.939-5.006-.2-5.379-.217-10.767-.521-16.139a20.777,20.777,0,0,1,1.134-7.684c1.987-6.253,3.565-12.636,5.274-18.977.92-3.419,1.716-6.873,2.672-10.28,1.042-3.718,2.692-4.955,6.6-4.727a26.175,26.175,0,0,1,5.777,1.1c3.328.978,3.908.785,4.387-2.63.93-6.641,1.685-13.3,2.577-19.952Q73.5,51.279,75.192,39.571a36.831,36.831,0,0,1,.92-4.239C78.372,26.839,83.4,20.948,91.951,18.2c8.51-2.741,16.951-5.691,25.442-8.5,7.866-2.6,15.753-5.131,23.639-7.671,1.5-.483,3.057-.794,4.551-1.3,8.676-2.925,18.373,3.163,18.5,14.1a106.328,106.328,0,0,1-.93,12.968c-1.455,13.05-3.032,26.089-4.543,39.134-1.073,9.268-2.1,18.543-3.18,27.811-1.2,10.308-2.367,20.624-3.714,30.914-.509,3.886-1.775,7.683-2.158,11.573a66.151,66.151,0,0,0,.233,10.149c.092,1.636,1.336,2.428,2.756,3.023,3.506,1.47,6.973,3.033,10.477,4.508,3.759,1.581,5.11,7.927,2.383,11.169-.988,1.175-1.869,2.441-2.764,3.692-1.4,1.957-3.522,2.57-5.678,3.261-2.983.956-5.935,2.039-8.821,3.256-2.089.881-3.386,2.409-2.81,4.947a6.765,6.765,0,0,1,.09,2.358c-.424,3.109,1.219,4.911,3.719,6.3,1.943,1.081,3.785,2.345,5.724,3.434a4.659,4.659,0,0,1,2.406,5.33c-.611,3.67-2.98,6.089-6.009,7.875a41.928,41.928,0,0,1-5.062,2.185c-2.784,1.171-4.357,2.913-4.224,6.286.192,4.814-.01,4.753,4.447,6.25a47.94,47.94,0,0,1,5.764,2.553,4.893,4.893,0,0,1,2.171,6.937,52.722,52.722,0,0,1-2.8,4.679,4.509,4.509,0,0,1-2.008,1.811c-4.436,1.385-7.126,5.218-10.862,7.589-2.268,1.439-4.119,3.562-6.071,5.465a16.212,16.212,0,0,1-8.651,4.433c-8.126,1.438-16.266,2.791-24.409,4.121-7.006,1.145-14.026,2.213-21.04,3.312-.779.122-1.573.179-2.337.361-2.805.674-3.471,1.257-3.139,4.042.7,5.846,1.394,11.6,6.053,16.178,9.274,9.125,18.172,18.627,27.335,27.867,1.834,1.848,4.194,3.164,6.24,4.814,15.894,12.817,32.872,24.1,49.841,35.415,17.95,11.968,35.958,23.863,53.577,36.3,8.785,6.2,16.83,13.466,25.077,20.408,8.319,7,17.678,12.308,27.251,17.312a6.754,6.754,0,0,0,4.955.334,89.894,89.894,0,0,1,20.3-2.606c10.836.036,21.461,1.842,32,4.165,6.028,1.329,12,2.929,17.978,4.484,1.629.422,3.1.619,4.337-.79a.9.9,0,0,1,.314-.237c7.092-2.974,13.861-6.927,21.936-6.855a10.629,10.629,0,0,0,4.9-1.06,15.129,15.129,0,0,1,13.671-.573,7.713,7.713,0,0,0,7.112-.414,15.029,15.029,0,0,1,14.7.161c3.307,1.74,7.276,2.187,10.7,3.756,4.623,2.119,9.358,2.092,14.218,1.909a9.805,9.805,0,0,1,4.24.726c2.59,1.157,4.824.49,7.146-.657,1.989-.983,4.038-1.848,6.1-2.678a5.964,5.964,0,0,0,4.2-5.93c.5-15.191,2.074-30.3,4.015-45.365.754-5.862,1.532-11.731,2.621-17.537,1.279-6.815,2.976-13.551,4.359-20.348.779-3.835,1.289-7.725,1.918-11.59.021-.13,0-.268.023-.394,3.483-15.1,3.581-30.683,6.564-45.843,1.494-7.592,3.624-15.056,5.228-22.629a165.836,165.836,0,0,1,12.731-37.205,119.983,119.983,0,0,1,20.133-29.559c3.907-4.244,8.408-7.944,12.668-11.859A8.89,8.89,0,0,1,530,174.414c4.255-1.677,7.473-4.766,10.962-7.548a32.854,32.854,0,0,1,8-4.85,106.25,106.25,0,0,1,16.4-5.57c6.245-1.4,12.686-2.28,19.172-1.411,2.2.3,4.408.583,6.6.964,2.975.519,5.246,2.262,7.3,4.362.889.912,1.826,1.779,2.753,2.655a2.92,2.92,0,0,0,3.92.319c6.017-3.514,12.356-3.2,18.693-1.153a44.211,44.211,0,0,1,15.083,8.417c7.667,6.516,13.462,14.537,18.823,23.091,7.637,12.183,10.847,25.867,15.023,39.249a165.938,165.938,0,0,1,7.256,34.665c.265,2.951.85,5.874,1.289,8.808l-.991.173c-.205-1.285-.409-2.57-.587-3.682-.465,3.314-.128,3.174,1.279,6.569.919,2.22,1.64,4.873,0,7.408a4.383,4.383,0,0,0-.679,3.283,12.307,12.307,0,0,1,.324,6.577,4.879,4.879,0,0,0,.316,3.082c1.765,3.112,1.016,6.342.8,9.564q-1.233,18.464-2.47,36.924c-.5,7.466-.859,14.948-1.591,22.392-.856,8.719-1.348,17.475-3.236,26.091-2.3,10.507-4.224,21.1-6.267,31.662-.27,1.39-.293,2.829-.462,4.591,1.431.32,2.658.659,3.908.863,6.737,1.1,13.482,2.161,20.222,3.245,5.179.831,10.366,1.61,15.526,2.533a23.079,23.079,0,0,1,16.047,10.944,139.454,139.454,0,0,1,10.634,20.651c5.542,13.346,11.541,26.5,17.37,39.729q4.134,9.382,8.362,18.722c.516,1.147,1.2,2.22,2.165,3.984,0-3.514.046-6.215-.01-8.915-.13-6.169-.207-12.344-.506-18.508-.176-3.654.031-7.591-1.266-10.875-3.234-8.19-3.008-16.435-1.959-24.85.488-3.912.856-7.84,1.433-11.739a63.715,63.715,0,0,1,1.648-8.092c2.115-7.441,4.584-14.787,6.544-22.269,2.658-10.147,2.653-20.575,2.2-30.954a175.783,175.783,0,0,0-1.984-18.009,191.687,191.687,0,0,1-1.686-36.07c.2-4.8.3-9.751,3.019-14.112,1.159-1.855,2.692-3.179,4.788-2.819,2.705.463,5.415,1.447,6.359,4.489a24.541,24.541,0,0,1,1.188,5.75c.227,3.93-.051,7.9.289,11.81.371,4.285,1.234,8.525,1.823,12.794.376,2.724.255,5.583,1.037,8.176,2.252,7.476,1.353,15.382,3.412,22.854a19.568,19.568,0,0,0,.891,2.607c1.448,3.33,2.511,4.006,6.908,4.347.942-3.864,2.618-7.591,2.562-11.751-.179-13.333,2.02-26.383,4.843-39.341,1.385-6.363,3.075-12.663,4.656-18.983,1.021-4.081,3.584-6.263,7.708-6.648,3.972-.37,6.157,1.308,6.061,5.292-.1,4.434-.625,8.87-1.165,13.28-.238,1.939-1.155,3.79-1.438,5.729-.273,1.88.048,3.843-.2,5.731-.85,6.623-1.943,13.216-2.722,19.846-.485,4.127-.214,8.364-.943,12.432a41.58,41.58,0,0,0-.975,10.916,17.55,17.55,0,0,0,.485,3.1c.758,2.818,2.442,3.413,4.483,1.342a19.659,19.659,0,0,0,2.884-4.6c1.058-1.963,1.946-4.017,2.978-6a4.56,4.56,0,0,1,4.224-2.433c6.646-.217,10.694,3.406,10.942,10.042.112,2.99-.141,6-.316,9-.141,2.415-.1,4.712,2.414,6.212,6.286-1.441,10.456,1.876,11.472,8.415.6,3.853-.754,7.088-1.971,10.256-3.2,8.333-6.328,16.811-10.724,24.527a65.159,65.159,0,0,0-6.61,14.959c-1.627,5.888-4.858,11.028-7.682,16.367a88.31,88.31,0,0,0-3.9,9.02c-1.29,3.279-2.447,6.611-3.6,9.942a12.45,12.45,0,0,0-.7,3.058c-.541,6.794-.863,13.607-1.548,20.386-1.856,18.337-1.622,36.754-2.207,55.137-.181,5.627.3,11.278.542,16.915.288,6.692.73,13.379.937,20.074a44.162,44.162,0,0,0,1.338,10.1,38.449,38.449,0,0,1,.771,8.6c.154,5.095.112,10.2.22,15.293.079,3.792.378,7.582.378,11.373,0,5.744-.018,11.494-.307,17.228-.426,8.369-.95,16.74-1.726,25.082-.4,4.29-1.456,8.516-2.173,12.776-1.451,8.64-2.9,17.281-4.291,25.93-.493,3.069-2.04,5.606-3.611,8.19-2.316,3.808-4.41,7.75-6.714,11.563-5.085,8.414-12.409,11.174-22.145,9.731a53.133,53.133,0,0,1-27.023-11.92,38.736,38.736,0,0,1-5.815-6.339c-4.852-6.381-9.547-12.883-14.3-19.338-.544-.738-1.075-1.485-1.468-2.029-2.817.616-3.131,1.971-2.513,3.932,1.187,3.756,2.408,7.507,3.409,11.315a79.268,79.268,0,0,1,1.892,30.1c-.3,2.476-.373,4.982-.549,7.472-.02.263-.159.623-.039.772,1.834,2.267,1.821,5.083,2.475,7.729.8,3.237,2.044,6.367,3.129,9.531.463,1.354.644,3.24,1.614,3.872,1.17.764,2.674.759,2.983,2.634a47.319,47.319,0,0,0,1.369,4.934c.458,1.643.968,3.276,1.32,4.942a26.145,26.145,0,0,1,.761,5.062c.048,4.234,2.947,7.518,3.478,11.455,4.364,1.865,5.064,3.038,4.9,7.827a21.244,21.244,0,0,0,.158,3.115c.327,2.855.807,5.7,1.019,8.56a6.716,6.716,0,0,0,1.765,4.6c5.687,5.93,6.439,13.213,5.3,20.9-.358,2.415-1.7,4.8.27,7.122a1.116,1.116,0,0,1,.086.754c-.59,5.271.7,10.287,1.773,15.387.766,3.638.69,7.453.991,11.187ZM762.312,559.569l-8.364,3.73c.442,6.071,4.447,18.917,7,22.128.541-8.663,1.588-16.875,1.359-25.857m-81.88-276.825-.5.02V285.1c.168-.007.335-.013.5-.021Z" fill="red"/>
    </clipPath>
  </defs>
  <g id="banner-1" transform="translate(-969.545 -136)">
    <path id="teal_spot" data-name="teal spot" d="M5997.05,6064.76c58.313-91.483,81.466-180.224-94.041-208.719s-229.26,16.878-264.916,83.109-65.558,159.346,65.183,177.774S5938.74,6156.24,5997.05,6064.76Z" transform="translate(-4242.29 -5060.626)" fill="#5de2ff"/>
    <path id="circle_woosh" data-name="circle woosh" d="M261.233,592a395.811,395.811,0,0,1-45.533-2.492,284.771,284.771,0,0,1-40.2-7.5,216.425,216.425,0,0,1-35.1-12.561,180.878,180.878,0,0,1-30.221-17.662c-66.891-53.279-99.954-142.36-80.4-216.628,16.271-61.84,54.3-116.143,95.165-170.935,63.28-82.491,134.18-129.551,210.734-139.871l.607-.082.594-.151a3.823,3.823,0,0,1,4.338,5.461c-.924,1.613-4.283,2.32-9.3,3.215a78.073,78.073,0,0,0-7.749,1.676,243.8,243.8,0,0,0-29.119,6.88,247.5,247.5,0,0,0-28.277,10.485c-71.659,34.25-121.016,94.629-159.848,149.175C58.941,268.789,34.248,324.053,31.437,369.959c-4.514,71.949,37.847,139.819,81.831,175.163l.721.531c39.541,26.645,87.358,39.6,146.182,39.6,47.363,0,96.246-8.459,137.818-16.733,19.494-4.951,38.445-10.712,56.327-17.122A521.663,521.663,0,0,0,505.3,530.085a439.778,439.778,0,0,0,45.425-25.316,374.59,374.59,0,0,0,39.643-29.138,325.873,325.873,0,0,0,33.641-32.778,293.3,293.3,0,0,0,27.419-36.234,273.776,273.776,0,0,0,35.289-82.1,118.287,118.287,0,0,0,2.368-18.276,158.688,158.688,0,0,0-.207-19.772,195.241,195.241,0,0,0-2.6-20.607c-1.238-6.9-2.853-13.9-4.8-20.783s-4.244-13.72-6.821-20.3A201.927,201.927,0,0,0,666,205.627a168.266,168.266,0,0,0-10.3-17.35,128.686,128.686,0,0,0-11.766-14.886C598.92,126.351,524.3,96.039,449.209,94.282c-2.3-.037-4.623-.055-6.922-.055A429.7,429.7,0,0,0,288.406,122.61a34.214,34.214,0,0,0-10.778,4.758,15.4,15.4,0,0,1-3.49.229c-.285,0-.585,0-.891-.007a3.025,3.025,0,0,1-1.284-3.325c.413-1.576,4.527-3.345,7.833-4.767,1.894-.815,3.681-1.594,4.739-2.16a285.077,285.077,0,0,1,43.068-14.7c38.672-10.461,76.513-15.766,112.471-15.766,10.3,0,20.557.447,30.476,1.327s19.776,2.22,29.289,3.98S518.8,96.173,527.88,98.81a274.036,274.036,0,0,1,26.733,9.276c87.924,31.521,138.272,96.825,141.77,183.882a148.821,148.821,0,0,1-.361,17.308,159.4,159.4,0,0,1-2.4,17.577,177.894,177.894,0,0,1-4.447,17.876c-1.817,5.986-4.007,12.111-6.508,18.207a266.829,266.829,0,0,1-19.245,37.527,395.368,395.368,0,0,1-27.633,39.218c-5.816,7.081-12.033,14.031-18.479,20.656-6.253,6.427-12.89,12.723-19.727,18.715a370.6,370.6,0,0,1-42.417,31.987A422.876,422.876,0,0,1,510.1,536.4a488.14,488.14,0,0,1-46.151,19.505,588.916,588.916,0,0,1-89.311,24.481,679.682,679.682,0,0,1-74.907,10.19C286.274,591.525,273.321,592,261.233,592Z" transform="translate(1169.914 292.079)"/>
    <path id="pink_spot" data-name="pink spot" d="M5378.32,6082.98c-62.278-83.036-148.558-120.064-201.972-84.453s-157.177,166.648-76.14,236.5,243.157,118.117,295.107,37.1S5440.6,6166.01,5378.32,6082.98Z" transform="translate(-4097.333 -5752.166)" fill="#ffe0f5"/>
    <path id="Underline-stripes" d="M2.991,11.9a1.4,1.4,0,0,1-.854,1.777,1.216,1.216,0,0,1-1.451-.712C.287,10.749.271,8.434,0,6.184a1.252,1.252,0,0,1,2.12-.878c.578.631.346,1.6.5,2.384Q2.812,9.8,2.991,11.9Zm5.3-6.873c-.28,2.236-.67,4.462-.819,6.712a1.189,1.189,0,0,0,2.02.994c.572-.848.222-.427.406-1.276.012-.044.378-2.711.506-3.713.022-.988.564-2.075.157-3.013a1.252,1.252,0,0,0-2.269.3Zm7.38.742c-.076,1.6-.179,3.2-.219,4.8a1.234,1.234,0,0,0,2.091.866c.61-.7.322-1.744.451-2.6a18.24,18.24,0,0,0,.053-3.541,1.241,1.241,0,0,0-2.376.478ZM24.7,13.145c-.252-1.575-.485-5.258-.87-7.852a1.242,1.242,0,0,0-2.376.478c.217,2.309.412,4.622.747,6.917a2.553,2.553,0,0,0,.371,1.225,1.194,1.194,0,0,0,2.089-1.041c.013.067.04.334.039.273Zm5.972-1.584c-.028-.133-.028-.105-.005,0Zm.025.149c0-.03-.007-.061-.012-.091s-.009-.039-.013-.058c.007.039.014.079.025.149ZM32.645,5.2c-.076-.659.108-1.45-.414-1.96a1.252,1.252,0,0,0-2.119.878c.157,2.5.167,5.023.569,7.5a1.12,1.12,0,0,0,.32.625A1.209,1.209,0,0,0,32.881,12a2.47,2.47,0,0,0,.1-1.466c-.144-1.775-.249-3.553-.332-5.332Zm7.836-.224c-.063-.591.061-1.287-.414-1.736a1.252,1.252,0,0,0-2.119.877c.1,1.652.306,5.895.452,6.291a1.214,1.214,0,1,0,2.391-.331c-.127-1.7-.222-3.4-.309-5.1ZM49.529,9.24c-.049-2.532-.012-5.065-.023-7.6A1.56,1.56,0,0,0,49.142.358a1.252,1.252,0,0,0-2.119.878c.041,2.8-.094,5.619.078,8.419.165.813-.166.428.4,1.255a1.2,1.2,0,0,0,1.867-.241,3.06,3.06,0,0,0,.163-1.428ZM56.1,2.06a40.478,40.478,0,0,0-.112,6.3c.025.27.086.67.019.171.02.187.049.353.081.533s-.011-.115-.023-.2a1.061,1.061,0,0,0,.31.755c1.278.945,1.91-.438,1.853-1.094l-.04.3c.187-1.346.155-2.71.235-4.064a14.931,14.931,0,0,0,.053-3.175A1.241,1.241,0,0,0,56.1,2.06Zm12.02.569C68.047,2,68.205,1.253,67.7.771a1.252,1.252,0,0,0-2.119.878,62.951,62.951,0,0,0,.537,6.276c.026,1.051.791,1.958,1.872,1.407a1.257,1.257,0,0,0,.526-1.506c-.176-1.728-.316-3.46-.4-5.2ZM79.228,6.988c-.11-.886-.21-1.648-.435-3.19a9.885,9.885,0,0,0-.68-2.9A1.242,1.242,0,0,0,75.941,1.98c.569,1.942.466,4.477,1.181,6.244a1.2,1.2,0,0,0,1.569.313,1.289,1.289,0,0,0,.538-1.547Z" transform="translate(1730.022 583.56)"/>
    <path id="Element-sparkle" d="M13.044,11.485l-.011.011a3.992,3.992,0,0,1-.432.366,19.12,19.12,0,0,0-2.111,2.1,24.748,24.748,0,0,0-1.608,2.513,1.193,1.193,0,0,1,.044.7,1.21,1.21,0,0,1-2.192.286c-1.082-2.459-1.987-3-4.011-4.33-.635-.368-1.279-.72-1.936-1.046-.081-.038-.057-.028,0-.006A.867.867,0,0,1,.7,12.038a1.7,1.7,0,0,1-.237-.158c-.018-.011-.034-.022-.051-.034S.366,11.8.343,11.784a.934.934,0,0,1-.182-.212c-.011-.016-.028-.028-.039-.045l.022.017a1.032,1.032,0,0,1,.121-1.208,1.1,1.1,0,0,1,.587-.85A12.836,12.836,0,0,0,4.826,5.373,31.878,31.878,0,0,0,6.27,2.281c-.085-.26-.152-.465-.208-.618A1.075,1.075,0,0,1,7.083.263c.352-.331.961-.47,1.332.338A.813.813,0,0,1,8.438.86v.1c-.007.07-.016.139-.023.208s-.008.111-.013.167A26.254,26.254,0,0,0,10.866,6.41l.045.06.052.066a12.517,12.517,0,0,0,1.751,1.71c.573.572,1.441.931,1.824,1.653a1.2,1.2,0,0,1-1.494,1.586ZM7.525,5.477a13.146,13.146,0,0,1-2.869,4.1c-.423.348-.848.755-1.292,1.133a14.036,14.036,0,0,1,4.027,3.1c.076.089.14.186.21.28a9.724,9.724,0,0,1,3.742-3.89A13.739,13.739,0,0,1,7.525,5.477Z" transform="translate(1254.337 750.02) rotate(133)"/>
    <path id="Element-sparkle-2" data-name="Element-sparkle" d="M16.7,14.7l-.015.015a5.112,5.112,0,0,1-.553.469,24.482,24.482,0,0,0-2.7,2.685,31.683,31.683,0,0,0-2.059,3.216,1.527,1.527,0,0,1,.056.892,1.549,1.549,0,0,1-2.807.367C7.234,19.195,6.076,18.5,3.484,16.8c-.813-.47-1.638-.921-2.479-1.338-.1-.048-.073-.036,0-.008A1.111,1.111,0,0,1,.9,15.408a2.182,2.182,0,0,1-.3-.2c-.023-.014-.043-.028-.065-.043a.954.954,0,0,1-.088-.08A1.2,1.2,0,0,1,.2,14.813c-.014-.021-.036-.036-.049-.058l.028.022a1.32,1.32,0,0,1,.156-1.546,1.414,1.414,0,0,1,.752-1.088,16.435,16.435,0,0,0,5.09-5.266A40.805,40.805,0,0,0,8.028,2.918c-.109-.333-.2-.6-.266-.791A1.377,1.377,0,0,1,9.069.336c.451-.424,1.231-.6,1.7.432A1.041,1.041,0,0,1,10.8,1.1c0-.026.006-.021,0,.086v.039c-.008.089-.02.178-.029.267-.01.071-.011.142-.017.213.737,1.454,1.318,3.928,3.163,6.5l.058.077.067.084a16.02,16.02,0,0,0,2.241,2.188c.733.732,1.845,1.192,2.335,2.116A1.54,1.54,0,0,1,16.7,14.7ZM9.634,7.009A16.831,16.831,0,0,1,5.96,12.253c-.542.445-1.086.966-1.654,1.451a17.966,17.966,0,0,1,5.156,3.972c.1.114.179.238.269.358a12.451,12.451,0,0,1,4.792-4.985,17.583,17.583,0,0,1-4.889-6.04Z" transform="translate(1265.685 729.883) rotate(164.991)"/>
    <g id="h-bump">
      <path id="bump" d="M43.989,35.079a1.3,1.3,0,0,1-2.278.443,20.556,20.556,0,0,1-1.084-3.181c-1.653-4.879-3.174-9.8-4.744-14.705q-.307-.871-.573-1.572c-1.085,3.434-2.131,6.882-3.422,10.248-.743,1.71-1.094,3.837-2.6,5.056-1.42.854-2.489-.839-3.437-1.658-1.818-1.691-3.578-3.443-5.253-5.277C15.051,18.641,9.206,10.857,3.789,5.279c.182.545.362,1.09.525,1.64C6.449,13.66,8.348,20.473,10.19,27.3c1.031,4.209,2.633,8.378,2.856,12.731.064,2.205-1.566,3.222-3.389,3.982-1.906.925-5.225,2.447-6.5,3.284a.807.807,0,0,0,.148.064c4.323,2.354,8.7,4.619,12.834,7.3a1.316,1.316,0,0,1-.312,2.385c-.664.208-1.22-.271-1.751-.6q-2.689-1.71-5.487-3.246c-2.043-1.16-4.135-2.23-6.2-3.358C1.033,49.187-.629,48.042.4,46.384,1.28,45.111,2.808,44.52,4.123,43.8c1.969-1.068,5.248-2.316,6.2-3.164l.019-.031a2.378,2.378,0,0,0,.078-.328c.1-1.751-.372-3.044-.879-5.35-2.119-7.985-4.277-15.962-6.669-23.87C2.037,7.819.578,4.715,0,1.43A1.436,1.436,0,0,1,2.18.2,31.184,31.184,0,0,1,7.018,4.923C14.06,12.8,20.549,21.21,28.275,28.45a.848.848,0,0,0,.038-.095c1.007-2.383,2.738-7.3,3.841-10.861.37-1.2.683-2.411,1.082-3.6a3.332,3.332,0,0,1,1.133-1.821c1.571-.877,2.592,1.047,3.048,2.282,1.053,2.53,1.8,5.169,2.621,7.781.941,3.2,2.094,6.337,3.1,9.518C43.347,32.8,44.119,33.907,43.989,35.079Z" transform="translate(1523.098 270.478)"/>
    </g>
    <g id="h-love">
      <path id="love" d="M17.6,28.657C17.921,28.228,17.783,28.421,17.6,28.657ZM32.741,11.393c-.665,3.621-2.774,6.77-4.945,9.667-2.611,3.411-5.985,7.539-7.8,9.9a11.675,11.675,0,0,0-.893,1.1,1.583,1.583,0,0,1-.659.82,3.528,3.528,0,0,1-1.2.928A1.684,1.684,0,0,1,15.128,32.2a2.114,2.114,0,0,1,.083-.383,57.466,57.466,0,0,1-5.687-4.433C3.952,22.349-2.017,15.815.663,7.733,1.547,5.285,2.45,2.56,4.645.973,9.886-2.1,15.231,2.677,17.337,7.515c.421-.485.858-.956,1.316-1.4,2.509-2.136,5.537-4.82,9.054-4.421C32.013,2.425,33.586,7.589,32.741,11.393ZM28.38,5.626c-1.271-1.781-5.292.371-8.892,4.462a17.61,17.61,0,0,0-1.146,1.762,1.756,1.756,0,0,1-1.925.786c-1.332-.385-1.32-1.987-1.834-3.049-.062-.15-.1-.238-.121-.3l-.084-.2C13,5.51,9.983,3.494,8.826,3.412c-3.1-.4-3.7,1.61-5.176,6-2.034,7.223,6.175,14.45,13.56,19.75.064-.084.131-.167.188-.254.057-.068.132-.162.2-.253l-.028.037C23.689,20.727,33.146,11.137,28.38,5.626Z" transform="translate(969.543 286.213) rotate(-39)"/>
    </g>
    <g id="h-instagram">
      <g id="instagram_group" transform="translate(1755.829 264.059) rotate(30)">
        <rect id="Rectangle_925" data-name="Rectangle 925" width="42.004" height="41.998" rx="20.999" fill="#7558f2"/>
        <path id="instagram" d="M9.115,4.438A4.666,4.666,0,1,0,12.42,5.8,4.672,4.672,0,0,0,9.115,4.438Zm0,7.71A3.038,3.038,0,1,1,12.152,9.11a3.038,3.038,0,0,1-3.037,3.038Zm5.954-7.9a1.09,1.09,0,1,1-1.09-1.09,1.09,1.09,0,0,1,1.09,1.09Zm3.094,1.106a5.392,5.392,0,0,0-1.473-3.82A5.427,5.427,0,0,0,12.873.062c-1.5-.085-6.014-.085-7.518,0a5.422,5.422,0,0,0-3.819,1.47A5.412,5.412,0,0,0,.063,5.35c-.086,1.5-.086,6.014,0,7.519a5.392,5.392,0,0,0,1.471,3.818,5.434,5.434,0,0,0,3.818,1.472c1.5.085,6.014.085,7.518,0a5.394,5.394,0,0,0,3.818-1.473,5.43,5.43,0,0,0,1.472-3.819c.086-1.5.087-6.01,0-7.515Zm-1.945,9.129a3.076,3.076,0,0,1-1.732,1.733c-1.2.476-4.046.367-5.371.367s-4.176.106-5.371-.365A3.074,3.074,0,0,1,2.01,14.483c-.476-1.2-.365-4.046-.365-5.372s-.105-4.176.367-5.372A3.076,3.076,0,0,1,3.744,2.007c1.2-.476,4.046-.367,5.371-.367s4.176-.106,5.371.365a3.074,3.074,0,0,1,1.732,1.732c.476,1.2.365,4.046.365,5.372s.11,4.177-.366,5.372Z" transform="translate(11.802 11.56)" fill="#fff"/>
        <path id="Path_30521" data-name="Path 30521" d="M-16.272-.18h8.748V-1.89H-13.23c2.106-1.926,5.346-4.356,5.346-7.542,0-2.358-1.512-3.96-4.176-3.96a3.981,3.981,0,0,0-3.072,1.158A3.981,3.981,0,0,0-16.29-9.162h1.98c.054-1.476.828-2.484,2.268-2.484,1.53,0,2.124.936,2.124,2.3,0,2.574-3.258,4.95-6.354,7.668ZM-4.32,0h2.07V-13.122H-5.994v1.872H-4.32Zm6.3,0H4.05V-13.122H.306v1.872H1.98ZM14.04,0h2.682L11.2-6.246l5.436-6.264H14.058L9.2-6.8v-5.71H7.146V0H9.2V-5.6Z" transform="translate(17.045 62.871)"/>
      </g>
    </g>
    <g id="h-tiktok">
      <g id="tiktok_group" transform="translate(1242.755 297.291) rotate(-30)">
        <rect id="Rectangle_925-2" data-name="Rectangle 925" width="42.016" height="42.009" rx="21.004"/>
        <path id="tiktok" d="M17.185,7.967a8.123,8.123,0,0,1-4.711-1.49v6.781a6.168,6.168,0,0,1-4.051,5.774A6.284,6.284,0,0,1,1.535,17.3a6.114,6.114,0,0,1-.782-6.986A6.255,6.255,0,0,1,7.094,7.146v3.411a2.88,2.88,0,0,0-3.187,1.052,2.806,2.806,0,0,0,.02,3.323,2.882,2.882,0,0,0,3.2,1.016A2.833,2.833,0,0,0,9.1,13.258V0h3.376a4.549,4.549,0,0,0,.071.841h0a4.636,4.636,0,0,0,2.069,3.044,4.7,4.7,0,0,0,2.571.765Z" transform="translate(12.792 12.104)" fill="#fff"/>
        <path id="Path_30517" data-name="Path 30517" d="M-17.176-.19h9.234V-2h-6.023c2.223-2.033,5.643-4.6,5.643-7.961,0-2.489-1.6-4.18-4.408-4.18a4.2,4.2,0,0,0-3.244,1.221A4.2,4.2,0,0,0-17.2-9.676h2.09c.057-1.558.874-2.622,2.394-2.622,1.615,0,2.242.988,2.242,2.432,0,2.717-3.439,5.225-6.707,8.094ZM-4.56,0h2.185V-13.851H-6.327v1.976H-4.56ZM2.09,0H4.275V-13.851H.323v1.976H2.09ZM14.82,0h2.831L11.818-6.593,17.556-13.2H14.839L9.709-7.182V-13.2H7.543V0H9.709V-5.909Z" transform="translate(18.058 63.871)"/>
      </g>
    </g>
    <g id="h-facebook">
      <g id="facebook_group" transform="translate(1216.884 863.819) rotate(-30)">
        <path id="Path_30519" data-name="Path 30519" d="M-17.974,0h2.185V-13.851h-3.952v1.976h1.767Zm6.65,0h2.185V-13.851h-3.952v1.976h1.767Zm7.7-1.254a1.367,1.367,0,0,0-.395-.981A1.367,1.367,0,0,0-5-2.641a1.371,1.371,0,0,0-.984.4,1.371,1.371,0,0,0-.4.984,1.371,1.371,0,0,0,.4.984A1.371,1.371,0,0,0-5,.133a1.367,1.367,0,0,0,.976-.406,1.367,1.367,0,0,0,.395-.981Zm2.014-9.177H.494A2.152,2.152,0,0,1,2.85-12.312c1.482,0,2.261.8,2.261,1.995,0,1.482-1.2,2.052-3.154,2.071H1.444V-6.46h.494c2.261,0,3.439.627,3.439,2.451a2.173,2.173,0,0,1-.677,1.7,2.173,2.173,0,0,1-1.736.58A2.446,2.446,0,0,1,1.141-2.3,2.446,2.446,0,0,1,.285-4.009H-1.8C-1.672-1.292.361.076,2.983.076,5.871.076,7.429-1.6,7.429-3.8A3.374,3.374,0,0,0,5.054-7.353v-.076a3.235,3.235,0,0,0,2.128-3.135c0-2.014-1.5-3.61-4.256-3.61-2.526,0-4.389,1.349-4.541,3.743ZM17.271,0H20.1L14.269-6.593,20.007-13.2H17.29L12.16-7.182V-13.2H9.994V0H12.16V-5.909Z" transform="translate(19.334 64.403)"/>
        <rect id="Rectangle_920" data-name="Rectangle 920" width="42.016" height="42.009" rx="21.004" fill="#1977f3"/>
        <path id="facebook" d="M2.375,18.586V9.865H0V6.725H2.374V4.043C2.373,1.936,3.774,0,7,0A20.168,20.168,0,0,1,9.278.123L9.2,3.055s-.986-.009-2.062-.01c-1.164,0-1.351.521-1.351,1.387V6.726H9.3l-.152,3.14H5.79v8.721H2.375" transform="translate(16.186 11.445)" fill="#fff"/>
      </g>
    </g>
    <g id="h-twitter">
      <g id="twitter_group" transform="matrix(0.966, 0.259, -0.259, 0.966, 1365.431, 484.353)">
        <rect id="Rectangle_921" data-name="Rectangle 921" width="42.009" height="41.998" rx="20.999" fill="#1da1f2"/>
        <path id="twitter" d="M16.906,1.649a7.037,7.037,0,0,1-1.993.55A3.514,3.514,0,0,0,16.44.264a7.216,7.216,0,0,1-2.208.841A3.456,3.456,0,0,0,10.061.412,3.5,3.5,0,0,0,8.315,4.288,9.8,9.8,0,0,1,1.159.649,3.457,3.457,0,0,0,.688,2.408,3.5,3.5,0,0,0,2.231,5.315,3.433,3.433,0,0,1,.66,4.88v.042A3.492,3.492,0,0,0,3.443,8.35a3.47,3.47,0,0,1-1.561.061,3.49,3.49,0,0,0,3.25,2.427A6.944,6.944,0,0,1,.826,12.331,6.843,6.843,0,0,1,0,12.284,9.872,9.872,0,0,0,15.212,3.919c0-.147,0-.3-.011-.447a6.977,6.977,0,0,0,1.737-1.809Z" transform="translate(12.822 14.164)" fill="#fff"/>
        <path id="Path_30518" data-name="Path 30518" d="M-17.739-13.158V-5.58H-15.8a2.367,2.367,0,0,1,2.358-1.638c1.71,0,2.556.972,2.556,2.682,0,1.62-.792,2.826-2.556,2.826a2.447,2.447,0,0,1-2.592-1.836h-2C-17.721-1.494-16.155,0-13.455,0c3.042,0,4.536-1.98,4.536-4.59,0-1.98-.99-4.374-4.212-4.374a3.516,3.516,0,0,0-2.718,1.188v-3.582h6.03v-1.8ZM-4.383-1.188a1.3,1.3,0,0,0-.375-.926A1.3,1.3,0,0,0-5.679-2.5a1.3,1.3,0,0,0-.933.38,1.3,1.3,0,0,0-.381.932,1.3,1.3,0,0,0,.381.933,1.3,1.3,0,0,0,.933.381,1.3,1.3,0,0,0,.922-.387,1.3,1.3,0,0,0,.374-.927Zm4.158-5.67a3.314,3.314,0,0,0-2.2,3.24C-2.421-1.224-.477.324,2.223.324c2.718,0,4.662-1.548,4.662-3.942a3.339,3.339,0,0,0-2.214-3.24A3.228,3.228,0,0,0,6.543-9.81c0-1.89-1.422-3.546-4.32-3.546S-2.1-11.718-2.1-9.81A3.123,3.123,0,0,0-.225-6.858Zm2.448-.648A2.118,2.118,0,0,1,.61-8.014,2.118,2.118,0,0,1-.117-9.54c0-1.386.936-2.106,2.34-2.106,1.44,0,2.358.738,2.358,2.088a2.147,2.147,0,0,1-.736,1.535,2.147,2.147,0,0,1-1.622.517Zm0,1.548c1.548,0,2.646.792,2.646,2.268a2.355,2.355,0,0,1-.81,1.74,2.355,2.355,0,0,1-1.836.56c-1.674,0-2.682-.972-2.682-2.3,0-1.53,1.17-2.268,2.682-2.268ZM16.209,0h2.682L13.365-6.246,18.8-12.51H16.227L11.367-6.8v-5.71H9.315V0h2.052V-5.6Z" transform="translate(18.403 63.046)"/>
      </g>
    </g>
    <g id="h-youtube">
      <g id="youtube_grouop" transform="translate(1797.512 379.96) rotate(-30)">
        <path id="Path_30520" data-name="Path 30520" d="M-18.724-13.889v8h2.052a2.5,2.5,0,0,1,2.489-1.729c1.805,0,2.7,1.026,2.7,2.831,0,1.71-.836,2.983-2.7,2.983A2.583,2.583,0,0,1-16.92-3.743h-2.109C-18.7-1.577-17.052,0-14.2,0c3.211,0,4.788-2.09,4.788-4.845,0-2.09-1.045-4.617-4.446-4.617a3.712,3.712,0,0,0-2.869,1.254v-3.781h6.365v-1.9Zm14.1,12.635a1.367,1.367,0,0,0-.395-.981,1.367,1.367,0,0,0-.976-.406,1.371,1.371,0,0,0-.985.4,1.371,1.371,0,0,0-.4.985,1.371,1.371,0,0,0,.4.985,1.371,1.371,0,0,0,.985.4,1.367,1.367,0,0,0,.974-.407,1.367,1.367,0,0,0,.394-.98ZM-.238-7.239a3.5,3.5,0,0,0-2.318,3.42C-2.556-1.292-.5.342,2.346.342c2.869,0,4.921-1.634,4.921-4.161A3.524,3.524,0,0,0,4.93-7.239a3.407,3.407,0,0,0,1.976-3.116c0-1.995-1.5-3.743-4.56-3.743s-4.56,1.729-4.56,3.743A3.3,3.3,0,0,0-.238-7.239Zm2.584-.684a2.235,2.235,0,0,1-1.7-.536A2.235,2.235,0,0,1-.124-10.07c0-1.463.988-2.223,2.47-2.223,1.52,0,2.489.779,2.489,2.2A2.266,2.266,0,0,1,4.06-8.47a2.266,2.266,0,0,1-1.714.547Zm0,1.634c1.634,0,2.793.836,2.793,2.394a2.486,2.486,0,0,1-.853,1.84,2.486,2.486,0,0,1-1.94.592C.579-1.463-.485-2.489-.485-3.9c0-1.61,1.235-2.389,2.831-2.389ZM17.11,0h2.831L14.108-6.593,19.846-13.2H17.128L12-7.182V-13.2H9.832V0H12V-5.909Z" transform="translate(19.413 64.047)"/>
        <rect id="Rectangle_921-2" data-name="Rectangle 921" width="42.016" height="42.009" rx="21.004" fill="red"/>
        <path id="youtube" d="M21.783,2.439A2.79,2.79,0,0,0,19.816.468C18.081,0,11.124,0,11.124,0S4.167,0,2.432.466A2.788,2.788,0,0,0,.465,2.436,29.057,29.057,0,0,0,0,7.8a29.061,29.061,0,0,0,.466,5.365A2.749,2.749,0,0,0,2.433,15.1c1.735.466,8.692.467,8.692.467s6.957,0,8.692-.465a2.747,2.747,0,0,0,1.967-1.939A29.057,29.057,0,0,0,22.249,7.8a29.06,29.06,0,0,0-.466-5.361ZM8.85,11.1V4.51L14.664,7.8Z" transform="translate(10.56 12.972)" fill="#fff"/>
      </g>
    </g>
    <path id="Underline-swoshes" d="M123.154,16.479c-1.305-.1-3.207-.363-4.757-.442A415.65,415.65,0,0,0,43.6,19.76C31.5,21.5,15.823,24.742,2.673,27.586a3.7,3.7,0,0,1-1.983.158A1.1,1.1,0,0,1,.1,26.288c.253-.65,1.03-.746,1.611-.993,1.082-.385,2.178-.73,3.269-1.09C17.8,19.863,30.746,15.876,44.045,13.27c12.176-2.67,24.544-4.237,36.87-6.013C77.458,7.15,74,7.1,70.541,7.162a195.056,195.056,0,0,0-27,2.5q-2.6.672-5.193,1.363c-3.321.874-6.654,1.7-9.983,2.547-2.07.375-4.16,1.408-6.278,1.139-1.381-.487-.979-1.974.111-2.516a48.438,48.438,0,0,1,9.454-2.8Q37.688,8.1,43.794,7.14C47.2,6.26,50.616,5.4,54.045,4.616c-6.659.712-13.259,1.576-19.764,2.67C48.775,1.854,64.369.992,79.677.1a11.248,11.248,0,0,1,2.5-.019,1.245,1.245,0,0,1,.855,1.687c-.535,1.149-2.125.747-3.164,1-3.907.437-6.165.729-9.825,1.269-1.809.27-3.611.578-5.409.9a149.417,149.417,0,0,1,24.4.445,1.295,1.295,0,0,1,1.006,1.56c-.382,1.067-1.725,1.179-2.69,1.4-1.051.176-2.617.474-4.359.745-12.56,1.813-23.97,3.084-36.561,5.762a265.691,265.691,0,0,0-27.6,6.94q8.609-1.751,17.262-3.277a403.145,403.145,0,0,1,48.838-4.92c11.785-.42,23.754-.892,35.279,2.066C121.2,15.911,122.173,16.2,123.154,16.479Z" transform="translate(1315.619 969.979)"/>
  </g>
</svg>
