<svg xmlns="http://www.w3.org/2000/svg" xmlns:xlink="http://www.w3.org/1999/xlink" width="868" height="554" viewBox="0 0 868 554">

  <style>
  	@-webkit-keyframes floating-back {
	    from { -webkit-transform: translate(0,  0px); transform: translate(0,  0px); }
	    65%  { -webkit-transform: translate(0, -15px); transform: translate(0, -15px); }
	    to   { -webkit-transform: translate(0, 0px); transform: translate(0, 0px); }    
	}

	#woman {
		animation-duration: 3s; 
		animation-name: floating-back; 
		animation-iteration-count: infinite; 
		animation-timing-function: ease-in-out;
	}

	#male {
		animation-delay: 1s; 
		animation-duration: 3s; 
		animation-name: floating-back; 
		animation-iteration-count: infinite; 
		animation-timing-function: ease-in-out;
	}
  </style>  

  <defs>
	<linearGradient id="linear-gradient" x1="0.5" x2="0.5" y2="1" gradientUnits="objectBoundingBox">
	  <stop offset="0" stop-color="#ef66c5"/>
	  <stop offset="0.498" stop-color="#364ddd"/>
	  <stop offset="1" stop-color="#00bfe8"/>
	</linearGradient>
	<linearGradient id="linear-gradient-2" x1="0.5" x2="0.5" y2="1" gradientUnits="objectBoundingBox">
	  <stop offset="0" stop-color="#fff7fc"/>
	  <stop offset="0.498" stop-color="#edf0ff"/>
	  <stop offset="1" stop-color="#f8feff"/>
	</linearGradient>
	<linearGradient id="linear-gradient-4" x1="0.5" x2="0.5" y2="1" gradientUnits="objectBoundingBox">
	  <stop offset="0" stop-color="#ffe0f5"/>
	  <stop offset="0.498" stop-color="#cad1fc"/>
	  <stop offset="1" stop-color="#d1f7ff"/>
	</linearGradient>
	<clipPath id="clip-path">
	  <rect id="Rectangle_6010" data-name="Rectangle 6010" width="868" height="554" transform="translate(874 466)" fill="#fff" stroke="#707070" stroke-width="1"/>
	</clipPath>
	<linearGradient id="linear-gradient-5" x1="0.117" y1="-0.397" x2="1.032" y2="1.08" xlink:href="#linear-gradient"/>
	<clipPath id="clip-path-2">
	  <rect id="Rectangle_5795" data-name="Rectangle 5795" width="233.33" height="91.615" transform="translate(0)" fill="url(#linear-gradient)"/>
	</clipPath>
	<linearGradient id="linear-gradient-6" x1="1.293" y1="-0.043" x2="-0.499" y2="0.989" xlink:href="#linear-gradient"/>
	<clipPath id="clip-path-3">
	  <rect id="Rectangle_5797" data-name="Rectangle 5797" width="194.683" height="112.375" transform="translate(0)" fill="none"/>
	</clipPath>
	<linearGradient id="linear-gradient-7" x1="-0.073" y1="-0.083" x2="1.213" y2="1.145" xlink:href="#linear-gradient-4"/>
	<clipPath id="clip-path-4">
	  <path id="Path_28579" data-name="Path 28579" d="M189.069,431.437,101.711,582.745H451.142L363.785,431.437,276.426,280.128Z" transform="translate(-101.711 -280.128)" fill="none"/>
	</clipPath>
	<linearGradient id="linear-gradient-8" x1="0.662" y1="0.31" x2="0.188" y2="0.839" gradientUnits="objectBoundingBox">
	  <stop offset="0" stop-color="#ffb1e7"/>
	  <stop offset="0.498" stop-color="#8d9dff"/>
	  <stop offset="1" stop-color="#5de2ff"/>
	</linearGradient>
	<clipPath id="clip-path-5">
	  <rect id="Rectangle_5802" data-name="Rectangle 5802" width="13.26" height="38.96" transform="translate(0)" fill="#dd42ad"/>
	</clipPath>
	<clipPath id="clip-path-6">
	  <rect id="Rectangle_5804" data-name="Rectangle 5804" width="13.26" height="38.96" fill="#dd42ad"/>
	</clipPath>
	<clipPath id="clip-path-7">
	  <rect id="Rectangle_5806" data-name="Rectangle 5806" width="13.258" height="38.96" transform="translate(0)" fill="#dd42ad"/>
	</clipPath>
	<clipPath id="clip-path-8">
	  <path id="Path_28586" data-name="Path 28586" d="M533.377,267.922a16.905,16.905,0,1,0,16.906-16.906,16.906,16.906,0,0,0-16.906,16.906" transform="translate(-533.377 -251.016)" fill="none"/>
	</clipPath>
	<clipPath id="clip-path-9">
	  <path id="Path_28587" data-name="Path 28587" d="M580.551,267.922a16.906,16.906,0,1,0,16.906-16.906,16.906,16.906,0,0,0-16.906,16.906" transform="translate(-580.551 -251.016)" fill="none"/>
	</clipPath>
	<clipPath id="clip-path-10">
	  <path id="Path_28588" data-name="Path 28588" d="M627.725,267.922a16.905,16.905,0,1,0,16.906-16.906,16.906,16.906,0,0,0-16.906,16.906" transform="translate(-627.725 -251.016)" fill="none"/>
	</clipPath>
	<clipPath id="clip-path-11">
	  <path id="Path_28602" data-name="Path 28602" d="M577.38,561.054c11.055,87.028,67.909,159.685,67.909,159.685l46.233-26.2c-21.822-39.056-32.58-100.779-32.58-100.779,42.14,71.405,138.472,103.3,138.472,103.3L818.281,664.7c-65.787-53.924-145.756-147.531-145.756-147.531Z" transform="translate(-577.38 -517.172)" fill="#cad1fc"/>
	</clipPath>
	<clipPath id="clip-path-12">
	  <path id="Path_28604" data-name="Path 28604" d="M515.551,443.709s16.489,19.793,30.293,26.809c0,0,59.727,1.852,69.308-36.071,0,0-35.692.4-72.4-23.26,0,0-20.137,16.464-27.2,32.522" transform="translate(-515.551 -411.187)" fill="url(#linear-gradient-2)"/>
	</clipPath>
	<linearGradient id="linear-gradient-9" x1="-5.151" y1="3.468" x2="-5.141" y2="3.468" xlink:href="#linear-gradient-2"/>
	<clipPath id="clip-path-13">
	  <path id="Path_28606" data-name="Path 28606" d="M562.464,404.1c7.532,11.834,11.741,12.6,11.741,12.6s-3.047,3.763-1.288,6.142,6.61-.624,6.61-.624,2.77,2.334.833,4.806a4.007,4.007,0,0,1-5.192,1.228s-4.128,7.367,2.361,11.971,22.8.836,25.048-14.079c1.8-11.895-4.255-17.355-4.255-17.355s6.548.656,7.2-2.946-11.787-5.4-11.787-5.4,18.991-5.076-2.947-13.589a29.5,29.5,0,0,0-10.665-2.169c-14.647,0-21.29,13.722-17.662,19.422" transform="translate(-561.49 -384.676)" fill="none"/>
	</clipPath>
	<linearGradient id="linear-gradient-10" x1="-9.766" y1="5.115" x2="-9.749" y2="5.115" gradientUnits="objectBoundingBox">
	  <stop offset="0" stop-color="#212b38"/>
	  <stop offset="0.053" stop-color="#293648"/>
	  <stop offset="0.213" stop-color="#3f5775"/>
	  <stop offset="0.374" stop-color="#51729a"/>
	  <stop offset="0.534" stop-color="#5f87b7"/>
	  <stop offset="0.692" stop-color="#6996cc"/>
	  <stop offset="0.848" stop-color="#6f9fd8"/>
	  <stop offset="1" stop-color="#72a2dd"/>
	</linearGradient>
	<clipPath id="clip-path-14">
	  <path id="Path_28608" data-name="Path 28608" d="M598.848,442.974C585.6,450.38,562.8,457.787,519.53,454.565c0,0-12.365,23.988-12.7,43.358,0,0,26.505,11.1,53.147,11.306,3.152-.552,21.643,50.425,23.216,70.972,1.656,7.807,79.483,6.328,104.341-46.611,4.719-12.684-49.534-96.072-67.782-102.732a4,4,0,0,0-1.385-.248c-4.068,0-8.459,6.182-19.514,12.365" transform="translate(-506.826 -430.609)" fill="url(#linear-gradient-2)"/>
	</clipPath>
	<linearGradient id="linear-gradient-11" x1="-2.4" y1="1.498" x2="-2.395" y2="1.498" xlink:href="#linear-gradient-2"/>
	<clipPath id="clip-path-15">
	  <rect id="Rectangle_5835" data-name="Rectangle 5835" width="70.949" height="14.375" transform="translate(0)" fill="#0ca1ce"/>
	</clipPath>
	<clipPath id="clip-path-16">
	  <path id="Path_28600" data-name="Path 28600" d="M133.527,409.827s-10.143,28.339-3.665,69.87c0,0,3.982,22.274-30.129,72.269,34.17,21.644,99.14,42.08,101.88,41.045,19.607-26.152,36.231-72.329,36.231-72.329a166.605,166.605,0,0,0,48.32-26.514c-5.076-19.556-21.878-38.082-21.878-38.082s-29.344,19.537-58.11,10.2c-43.132-14-32.711-47.026-32.711-47.026s-12.727-9.432-39.547-9.433h-.391" transform="translate(-99.733 -409.826)" fill="url(#linear-gradient-4)"/>
	</clipPath>
	<linearGradient id="linear-gradient-12" x1="-0.311" y1="1.415" x2="-0.307" y2="1.415" xlink:href="#linear-gradient-4"/>
	<clipPath id="clip-path-17">
	  <path id="Path_28612" data-name="Path 28612" d="M-6821.454-20636.842c4.159,64.574,118.318,143.842,208.725,96.566s112.8-150.6,109.2-149.7-191.254-124.07-191.254-124.07,22.113-129.4,25.17-133.352S-6821.454-20636.842-6821.454-20636.842Z" transform="translate(6821.454 20947.436)" fill="#fff"/>
	</clipPath>
	<clipPath id="clip-path-18">
	  <path id="Path_28599" data-name="Path 28599" d="M122.51,533.059a102.768,102.768,0,0,0-24.992,18.56C66.437,582.709,85.352,605.19,0,669.933l19.84,29.122S105,662.19,141.919,595.877c0,0-6.172,62.19-25.24,98.431l42.911,22.911s53.763-83.522,61.873-163.412L122.51,533.059h0" transform="translate(0 -528.136)" fill="#cad1fc"/>
	</clipPath>
  </defs>
  <g id="careers__media" transform="translate(-874 -466)" clip-path="url(#clip-path)">
	<g id="Group_3445" data-name="Group 3445">
	  <g id="Group_3312" data-name="Group 3312" transform="translate(888.022 474)">
		<path id="big-ball" d="M81.779,0c45.166,0,81.779,36.375,81.779,81.245S126.945,162.49,81.779,162.49,0,126.115,0,81.245,36.614,0,81.779,0Z" transform="translate(10.26 115.087)" fill="url(#linear-gradient-5)"/>
		<path id="Path_28578" data-name="Path 28578" d="M213.937,251a42.077,42.077,0,1,1,42.078,42.078A42.078,42.078,0,0,1,213.937,251" transform="translate(12.566 -208.924)" fill="#001179"/>
		<g id="Group_3259" data-name="Group 3259" transform="translate(339.342 59.922)" clip-path="url(#clip-path-2)">
		  <rect id="Rectangle_5794" data-name="Rectangle 5794" width="131.063" height="245.768" transform="translate(-15.797 88.805) rotate(-79.913)" fill="url(#linear-gradient-6)"/>
		</g>
		<g id="Group_3261" data-name="Group 3261" transform="translate(613.83 274.397)" clip-path="url(#clip-path-3)">
		  <rect id="Rectangle_5796" data-name="Rectangle 5796" width="163.394" height="218.701" transform="translate(-30.817 103.17) rotate(-73.369)" fill="#0ca1ce"/>
		</g>
		<path id="Path_28659" data-name="Path 28659" d="M0,0H241V235H0Z" transform="translate(372.978 152)" fill="url(#linear-gradient-7)"/>
		<g id="Group_3265" data-name="Group 3265" transform="translate(93.864 84.155)" clip-path="url(#clip-path-4)">
		  <rect id="Rectangle_5800" data-name="Rectangle 5800" width="413.326" height="438.655" transform="translate(-107.015 258.276) rotate(-67.494)" fill="url(#linear-gradient-8)"/>
		</g>
		<g id="bar-4" transform="translate(494.764 20.962)" clip-path="url(#clip-path-5)">
		  <rect id="Rectangle_5801" data-name="Rectangle 5801" width="13.26" height="38.96" transform="translate(0 0)" fill="#dd42ad"/>
		</g>
		<g id="bar-5" transform="translate(527.089 20.962)" clip-path="url(#clip-path-6)">
		  <rect id="Rectangle_5803" data-name="Rectangle 5803" width="13.26" height="38.96" transform="translate(0 0)" fill="#dd42ad"/>
		</g>
		<g id="bar-6" transform="translate(559.415 20.962)" clip-path="url(#clip-path-7)">
		  <rect id="Rectangle_5805" data-name="Rectangle 5805" width="13.258" height="38.96" transform="translate(0 0)" fill="#dd42ad"/>
		</g>
		<path id="Path_28656" data-name="Path 28656" d="M0,0H80.638V13.258H0Z" transform="translate(368.197 309.909)" fill="#364ddd"/>
		<path id="Path_28657" data-name="Path 28657" d="M0,0H80.638V13.258H0Z" transform="translate(368.197 342.232)" fill="#364ddd"/>
		<path id="Path_28658" data-name="Path 28658" d="M0,0H80.638V13.258H0Z" transform="translate(368.197 374.559)" fill="#364ddd"/>
		<path id="Path_28580" data-name="Path 28580" d="M367.986,336.75a39.634,39.634,0,0,0,40.076,40.076c22.484,0,41.03-17.592,41.03-40.076Z" transform="translate(40.499 -185.771)" fill="#cad1fc"/>
		<path id="Path_28581" data-name="Path 28581" d="M668.732,540.326a26.985,26.985,0,1,0-53.971,0Z" transform="translate(85.471 -153.554)" fill="#f4e0c6"/>
		<path id="Path_28583" data-name="Path 28583" d="M630.492,310.9l-44.418,76.934-44.418,76.934H719.327l-44.418-76.934Z" transform="translate(72.174 -190.375)" fill="#001179"/>
		<path id="Path_28584" data-name="Path 28584" d="M95.116,272.76,144.377,301.2l49.261,28.441V215.878l-49.261,28.441Z" transform="translate(-9.046 -207.66)" fill="#ffe0f5"/>
		<path id="Path_28655" data-name="Path 28655" d="M0,0H203.765V109.3H0Z" transform="translate(0 277.469)" fill="#001179"/>
		<path id="Path_28585" data-name="Path 28585" d="M238.244,541.348a33.628,33.628,0,1,1,67.256,0" transform="translate(16.987 -154.577)" fill="#ffe0f5"/>
		<g id="ball-1" transform="translate(604.045 49.748)" clip-path="url(#clip-path-8)">
		  <rect id="Rectangle_5814" data-name="Rectangle 5814" width="47.67" height="47.67" transform="translate(-16.7 19.536) rotate(-49.475)" fill="#7d8ffa"/>
		</g>
		<g id="ball-2" transform="translate(659.8 49.748)" clip-path="url(#clip-path-9)">
		  <rect id="Rectangle_5815" data-name="Rectangle 5815" width="47.671" height="47.671" transform="matrix(0.65, -0.76, 0.76, 0.65, -16.7, 19.536)" fill="#0ca1ce"/>
		</g>
		<g id="ball-3" transform="translate(715.554 49.748)" clip-path="url(#clip-path-10)">
		  <rect id="Rectangle_5816" data-name="Rectangle 5816" width="47.67" height="47.67" transform="matrix(0.65, -0.76, 0.76, 0.65, -16.7, 19.536)" fill="#dd42ad"/>
		</g>
		<path id="bar-1" d="M0,0H83.554V13.258H0Z" transform="translate(4.029 158.963)" fill="#0ca1ce"/>
		<path id="bar-2" d="M0,0H83.554V13.258H0Z" transform="translate(4.029 191.288)" fill="#0ca1ce"/>
		<path id="bar-3" d="M0,0H83.554V13.258H0Z" transform="translate(4.029 223.615)" fill="#0ca1ce"/>
		<path id="Path_28653" data-name="Path 28653" d="M0,0H29.287V29.287H0Z" transform="translate(247.871 42.079) rotate(-45)" fill="#ffe0f5"/>
		<path id="Path_28589" data-name="Path 28589" d="M22.292,504.506a24.135,24.135,0,0,0,0-48.27Z" transform="translate(-22.292 -163.94)" fill="#ffe0f5"/>
		<g id="male">
		  <g id="Group_3297" data-name="Group 3297" transform="translate(656.052 364.314)" clip-path="url(#clip-path-11)">
			<rect id="Rectangle_5827" data-name="Rectangle 5827" width="308.801" height="293.774" transform="matrix(0.879, -0.477, 0.477, 0.879, -85.293, 46.24)" fill="#cad1fc"/>
		  </g>
		  <path id="Path_28603" data-name="Path 28603" d="M526.6,407.438c-21.412-25.252-20.5-43.415-23.089-43.106-1.419.169-.362,8.583-.362,8.583s-2.8-9.517-4.391-9.358-.3,10.519-.3,10.519-2.276-11.718-4.222-11.235.086,13.018.086,13.018-1.717-9.7-3.735-9.109c-.964.28-.78,7.564.225,14.645,0,0-4.124-1.851-4.666-.83-1.107,2.08,6.678,8.021,6.678,8.021,2.23,10.886,6.119,24.553,11.783,35.815,14.948,29.713,41.136,43.52,41.136,43.52l17.208-38.812s-25.069-8.359-36.356-21.671" transform="translate(62.058 -180.93)" fill="#ffa9c6"/>
		  <g id="Group_3301" data-name="Group 3301" transform="translate(582.977 239.051)" clip-path="url(#clip-path-12)">
			<rect id="Rectangle_5829" data-name="Rectangle 5829" width="116.63" height="100.496" transform="matrix(0.885, -0.465, 0.465, 0.885, -25.196, 13.242)" fill="url(#linear-gradient-9)"/>
		  </g>
		  <path id="Path_28605" data-name="Path 28605" d="M569.5,397.832s-8.325,9.91-11.448,14.358c0,0-3.45-2.242-5.329-.332s2.782,6.26,2.782,6.26-4.641,8.6-3,13.227,10.7,10.3,15.047,10.953c0,0,3.722,16.354,3.978,19,0,0,16.108,5.146,29.168-10.072l-8.267-15.311s6.96-9.768,4.573-19.059-14.037-19.892-27.5-19.02" transform="translate(74.084 -174.572)" fill="#ffa9c6"/>
		  <g id="hear" transform="translate(637.271 207.721)" clip-path="url(#clip-path-13)">
			<rect id="Rectangle_5831" data-name="Rectangle 5831" width="67.006" height="71.533" transform="matrix(0.969, -0.245, 0.245, 0.969, -16.964, 3.623)" fill="url(#linear-gradient-10)"/>
		  </g>
		  <path id="Path_28607" data-name="Path 28607" d="M518.433,502.554s-29.319-15.239-46.635-43.637c-12.93-21.2-19.761-52.294-18.114-53.6s3.7,6.7,3.7,6.7-2.722-12.539-.825-13.178,5.015,10.411,5.015,10.411-2.127-10.889-.554-11.177,5.131,9.639,5.131,9.639-1.7-8.159-.338-8.584c2-.623,4.829,13.442,5.977,13.876,0,0,1.168-5.418,2.62-4.983,1.379.412.546,7.418,1.968,12.3,4.548,15.61,45.3,40.274,56.051,42.145Z" transform="translate(56.129 -174.521)" fill="#ffa9c6"/>
		  <g id="Group_3309" data-name="Group 3309" transform="translate(572.665 262.006)" clip-path="url(#clip-path-14)">
			<path id="Path_28660" data-name="Path 28660" d="M0,0H238.557V227.693H0Z" transform="translate(-66.871 37.202) rotate(-29.089)" fill="url(#linear-gradient-11)"/>
		  </g>
		</g>
		<g id="Group_3311" data-name="Group 3311" transform="translate(627.338 144.17)" clip-path="url(#clip-path-15)">
		  <rect id="Rectangle_5834" data-name="Rectangle 5834" width="69.198" height="46.519" transform="matrix(0.879, -0.478, 0.478, 0.879, -6.033, 3.28)" fill="#0ca1ce"/>
		</g>
		<g id="Group_3444" data-name="Group 3444">
		  <path id="Path_28610" data-name="Path 28610" d="M-6615.042-20621.928c-4.159,64.574-118.318,143.842-208.725,96.566s-3.607,92.916,0,93.811,230.828-11.3,230.828-11.3,21.986-99.113,18.929-103.068S-6615.042-20621.928-6615.042-20621.928Z" transform="translate(7491.027 21024.195)" fill="#fff"/>
		</g>
	  </g>
	  <g id="woman">
		<path id="Path_28596" data-name="Path 28596" d="M181.2,448.762l-9.067,14.7s13.5,21.337,25.746,4.761l3.232-24.936s6.1-4.181,7.334-7.189c1.332-3.241-3.138-12.7-3.138-12.7s1-2.957.691-3.788c-.294-.8-3.323-.5-3.323-.5-2.144-4-5.71-9.25-5.71-9.25s-16.4,3.866-21.275,15.534,5.51,23.372,5.51,23.372" transform="translate(892.985 301.623)" fill="#ffa9c6"/>
		<path id="Path_28597" data-name="Path 28597" d="M250.136,502.761s25.859-16.91,39.13-48.954c10.956-26.453,14.342-56.522,12.411-57.554s-2.565,7.558-2.565,7.558.494-13.369-1.571-13.679-3.237,11.607-3.237,11.607.186-11.567-1.481-11.574-3.5,10.836-3.5,10.836.252-8.687-1.227-8.874c-2.165-.273-2.491,14.684-3.591,15.341,0,0-2.192-5.348-3.6-4.635-1.339.677.8,7.714.236,12.983-1.8,16.86-39.113,49.652-49.8,53.544Z" transform="translate(903.752 298.033)" fill="#ffa9c6"/>
		<path id="Path_28598" data-name="Path 28598" d="M130.056,432.714s1-34.335,25.116-59.263c18.006-18.612,45.551-33.63,47.3-32.307s-5.795,5.489-5.795,5.489,11.939-6.037,13.085-4.29-9.193,7.792-9.193,7.792,10.431-5,11.135-3.491-8.381,7.708-8.381,7.708,7.786-3.861,8.573-2.6c1.152,1.853-12.3,8.4-12.436,9.674,0,0,5.775-.243,5.717,1.337-.054,1.5-7.434,2.348-11.893,5.212-34.11,21.909-27.825,67.627-27.825,67.627Z" transform="translate(885.331 289.111)" fill="#ffa9c6"/>
		<g id="Group_3293" data-name="Group 3293" transform="translate(979.549 711.443)" clip-path="url(#clip-path-16)">
		  <rect id="Rectangle_5825" data-name="Rectangle 5825" width="260.243" height="260.596" transform="matrix(0.623, -0.782, 0.782, 0.623, -89.77, 112.741)" fill="url(#linear-gradient-12)"/>
		</g>
		<path id="hear-2" data-name="hear" d="M192.395,454.393c6.224-6.518,1.349-16.408,1.349-16.408s-4.582-1.532-4.775-5.018c-.252-4.564,3.748-4.047,3.748-4.047s2.316,4.737,5.8,1.67c7.275-6.4,8.467-16.745,7.072-20.358-3.8-9.847-18.235-16.2-31.273-5.81-11.8,9.406-1.832,23.669-17.429,27.994-16.377,4.542-12.642,23.608-16.364,27.522s-19.375,8.293-16.141,26.854,36.784,16.38,42.189,4.053,2.663-21.032,8.786-25.35c7.152-5.043,11.971-5.8,17.036-11.1" transform="translate(884.22 299.666)" fill="#001179"/>
		<g id="Group_61" data-name="Group 61" transform="translate(850.467 593.346)" clip-path="url(#clip-path-17)">
		  <g id="Group_3291" data-name="Group 3291" transform="translate(11.208 254.995)" clip-path="url(#clip-path-18)">
			<rect id="Rectangle_5824" data-name="Rectangle 5824" width="294.376" height="298.19" transform="matrix(0.606, -0.796, 0.796, 0.606, -97.057, 115.187)" fill="#cad1fc"/>
		  </g>
		</g>
	  </g>
	</g>
  </g>
</svg>
