<svg xmlns="http://www.w3.org/2000/svg" xmlns:xlink="http://www.w3.org/1999/xlink" width="125.323" height="125.306" viewBox="0 0 125.323 125.306">
  <defs>
    <linearGradient id="linear-gradient" x1="0.115" y1="0.111" x2="0.856" y2="0.884" gradientUnits="objectBoundingBox">
      <stop offset="0" stop-color="#ffb1e7"/>
      <stop offset="0.498" stop-color="#8d9dff"/>
      <stop offset="1" stop-color="#5de2ff"/>
    </linearGradient>
  </defs>
  <path id="footer-logo" d="M29.375,115.017l11.2-11.206a46.879,46.879,0,0,0,68.241-37.3H63.184V51.228h60.562l.429,7.183a62.23,62.23,0,0,1-94.8,56.606Zm-11.2-8.885A62.36,62.36,0,0,1,9.3,29.369L20.481,40.562a47.1,47.1,0,0,0,3.536,48.922L39.838,73.635a25.021,25.021,0,0,0,44.85-.578h16.286A40.355,40.355,0,0,1,39.515,95.581l-15.94,15.953ZM28.722,39.513,12.78,23.56l5.4-5.4A62.316,62.316,0,0,1,71.939.773L72.081.8a62.2,62.2,0,0,1,27.108,12.23c.285.221.558.461.841.687L89.153,24.6A46.827,46.827,0,0,0,69.467,15.85,47.136,47.136,0,0,0,34.82,24.01L50.669,39.834a25,25,0,0,0-13.18,26.892L25.411,78.813A40.523,40.523,0,0,1,28.722,39.513Zm38.609-1.927c-.125-.027-.254-.042-.382-.068-.432-.083-.865-.166-1.3-.228-.2-.027-.4-.04-.595-.062-.367-.044-.735-.091-1.105-.116-.228-.017-.452-.018-.68-.029-.34-.016-.679-.034-1.021-.035a25.2,25.2,0,0,0-4.68.43L45.494,25.4a40.356,40.356,0,0,1,16.639-3.619v-.013c.071,0,.141.008.212.008.6,0,1.194.033,1.792.063.319.015.64.02.96.043.6.044,1.2.117,1.8.188.317.039.636.064.951.108.569.08,1.137.192,1.7.3.341.065.686.115,1.025.186.525.113,1.045.254,1.567.388.374.1.751.178,1.122.284.029.009.058.013.087.022l0,.006A40.181,40.181,0,0,1,83.38,27.813c.523.325,1.038.666,1.549,1.015L73.819,39.946A24.933,24.933,0,0,0,67.331,37.586Z" transform="translate(0.533 0.52)" stroke="rgba(0,0,0,0)" stroke-width="1" fill="url(#linear-gradient)"/>
</svg>
