<svg xmlns="http://www.w3.org/2000/svg" xmlns:xlink="http://www.w3.org/1999/xlink" width="261" height="54.457" viewBox="0 0 261 54.457">
  <defs>
    <linearGradient id="linear-gradient" y1="-0.377" x2="1.039" y2="1.262" gradientUnits="objectBoundingBox">
      <stop offset="0" stop-color="#ef66c5"/>
      <stop offset="0.498" stop-color="#364ddd"/>
      <stop offset="1" stop-color="#00bfe8"/>
    </linearGradient>
  </defs>
  <path id="glewee" d="M27.971,20.784C12.682,20.784,1.98,31.559,1.98,46.848S12.755,72.838,28.044,72.838c13.469,0,21.987-8.809,24.608-17.618V43.644H25.568v9.173h15.8c-1.893,5.751-6.188,9.028-12.377,9.028-8.955,0-14.342-5.533-14.342-15,0-8.882,5.315-14.561,13.323-14.561,4.659,0,8.154,1.82,10.047,5.242h13.76C49.084,27.045,40.2,20.784,27.971,20.784Zm29.777,51.69H70.2V18.6H57.747ZM95.314,41.242c4.15,0,7.644,2.548,7.644,6.989H87.378C88.106,43.717,91.237,41.242,95.314,41.242Zm19.438,17.764H101.5a6.619,6.619,0,0,1-6.48,3.931c-4,0-7.28-2.475-7.717-7.79H115.48a31.458,31.458,0,0,0,.218-3.64c0-12.377-8.372-20.239-20.239-20.239-12.085,0-20.531,8.008-20.531,20.895S83.52,73.057,95.459,73.057C105.579,73.057,112.787,66.941,114.752,59.006Zm12.522,13.469h13.687l6.625-26.355,6.407,26.355h13.76L178.747,31.85H167.025l-5.679,28.9-6.916-28.9H141.253L134.409,60.9,128.658,31.85H116.208Zm72.294-31.233c4.15,0,7.644,2.548,7.644,6.989h-15.58C192.361,43.717,195.491,41.242,199.568,41.242Zm19.439,17.764h-13.25a6.619,6.619,0,0,1-6.479,3.931c-4,0-7.28-2.475-7.717-7.79h28.175a31.458,31.458,0,0,0,.218-3.64c0-12.377-8.372-20.239-20.239-20.239-12.085,0-20.531,8.008-20.531,20.895s8.591,20.895,20.531,20.895C209.834,73.057,217.041,66.941,219.007,59.006ZM242.6,41.242c4.15,0,7.644,2.548,7.644,6.989h-15.58C235.388,43.717,238.518,41.242,242.6,41.242Zm19.438,17.764h-13.25a6.619,6.619,0,0,1-6.479,3.931c-4,0-7.28-2.475-7.717-7.79h28.175a31.461,31.461,0,0,0,.218-3.64c0-12.377-8.372-20.239-20.239-20.239-12.085,0-20.531,8.008-20.531,20.895s8.591,20.895,20.531,20.895C252.86,73.057,260.068,66.941,262.034,59.006Z" transform="translate(-1.98 -18.6)" fill="url(#linear-gradient)"/>
</svg>
