<svg xmlns="http://www.w3.org/2000/svg" xmlns:xlink="http://www.w3.org/1999/xlink" width="150.861" height="35.535" viewBox="0 0 150.861 35.535">
  <defs>
    <clipPath id="clip-path">
      <path id="Path_28391" data-name="Path 28391" d="M10.576,7.56a2.608,2.608,0,0,0-.6,1.83v28.8a2.6,2.6,0,0,0,.6,1.828l.1.1L26.806,23.98V23.6L10.671,7.465Z" transform="translate(-9.973 -7.465)" fill="none"/>
    </clipPath>
    <linearGradient id="linear-gradient" x1="-0.112" y1="1.238" x2="-0.075" y2="1.238" gradientUnits="objectBoundingBox">
      <stop offset="0" stop-color="#00a0ff"/>
      <stop offset="0.007" stop-color="#00a1ff"/>
      <stop offset="0.26" stop-color="#00beff"/>
      <stop offset="0.512" stop-color="#00d2ff"/>
      <stop offset="0.76" stop-color="#00dfff"/>
      <stop offset="1" stop-color="#00e3ff"/>
    </linearGradient>
    <clipPath id="clip-path-2">
      <path id="Path_28392" data-name="Path 28392" d="M22.9,21.1v.382l5.377,5.381L28.4,26.8l6.372-3.62c1.821-1.035,1.821-2.728,0-3.762L28.4,15.793l-.121-.069Z" transform="translate(-22.899 -15.724)" fill="none"/>
    </clipPath>
    <linearGradient id="linear-gradient-2" x1="-2.178" y1="2.838" x2="-2.083" y2="2.838" gradientUnits="objectBoundingBox">
      <stop offset="0" stop-color="#ffe000"/>
      <stop offset="0.409" stop-color="#ffbd00"/>
      <stop offset="0.775" stop-color="orange"/>
      <stop offset="1" stop-color="#ff9c00"/>
    </linearGradient>
    <clipPath id="clip-path-3">
      <path id="Path_28393" data-name="Path 28393" d="M10.436,36.23a2.117,2.117,0,0,0,2.706.081L32.166,25.5l-5.5-5.5Z" transform="translate(-10.436 -20.001)" fill="none"/>
    </clipPath>
    <linearGradient id="linear-gradient-3" x1="-0.394" y1="1.145" x2="-0.347" y2="1.145" gradientUnits="objectBoundingBox">
      <stop offset="0" stop-color="#ff3a44"/>
      <stop offset="1" stop-color="#c31162"/>
    </linearGradient>
    <clipPath id="clip-path-4">
      <path id="Path_28394" data-name="Path 28394" d="M10.436,7.658l16.23,16.23,5.5-5.5L13.142,7.579a2.991,2.991,0,0,0-1.46-.439,1.663,1.663,0,0,0-1.246.518" transform="translate(-10.436 -7.14)" fill="none"/>
    </clipPath>
    <linearGradient id="linear-gradient-4" x1="-0.399" y1="1.77" x2="-0.351" y2="1.77" gradientUnits="objectBoundingBox">
      <stop offset="0" stop-color="#32a071"/>
      <stop offset="0.068" stop-color="#2da771"/>
      <stop offset="0.476" stop-color="#15cf74"/>
      <stop offset="0.801" stop-color="#06e775"/>
      <stop offset="1" stop-color="#00f076"/>
    </linearGradient>
    <clipPath id="clip-path-5">
      <rect id="Rectangle_1091" data-name="Rectangle 1091" width="21.73" height="11.368" fill="none"/>
    </clipPath>
    <clipPath id="clip-path-6">
      <rect id="Rectangle_1092" data-name="Rectangle 1092" width="0.7" height="2.02" fill="none"/>
    </clipPath>
    <clipPath id="clip-path-7">
      <rect id="Rectangle_1093" data-name="Rectangle 1093" width="7.858" height="5.5" fill="none"/>
    </clipPath>
    <clipPath id="clip-path-8">
      <rect id="Rectangle_1094" data-name="Rectangle 1094" width="30.07" height="16.748" fill="none"/>
    </clipPath>
  </defs>
  <g id="google-play" transform="translate(0 0.1)">
    <path id="Path_28378" data-name="Path 28378" d="M49.252,11.264a3.527,3.527,0,0,1-.97,2.608,3.789,3.789,0,0,1-2.87,1.156,4.025,4.025,0,0,1-4.059-4.081,4.025,4.025,0,0,1,4.059-4.083,4.017,4.017,0,0,1,1.6.328,3.231,3.231,0,0,1,1.223.873l-.688.688a2.639,2.639,0,0,0-2.138-.927,3.02,3.02,0,0,0-3.034,3.122A3.072,3.072,0,0,0,47.594,13.2a2.45,2.45,0,0,0,.654-1.582H45.411v-.939H49.2a3.349,3.349,0,0,1,.055.59" transform="translate(-0.488 -6.865)"/>
    <path id="Path_28379" data-name="Path 28379" d="M49.252,11.264a3.527,3.527,0,0,1-.97,2.608,3.789,3.789,0,0,1-2.87,1.156,4.025,4.025,0,0,1-4.059-4.081,4.025,4.025,0,0,1,4.059-4.083,4.017,4.017,0,0,1,1.6.328,3.231,3.231,0,0,1,1.223.873l-.688.688a2.639,2.639,0,0,0-2.138-.927,3.02,3.02,0,0,0-3.034,3.122A3.072,3.072,0,0,0,47.594,13.2a2.45,2.45,0,0,0,.654-1.582H45.411v-.939H49.2A3.349,3.349,0,0,1,49.252,11.264Z" transform="translate(-0.488 -6.865)" stroke="#fff" stroke-miterlimit="10" stroke-width="0.2"/>
    <path id="Path_28380" data-name="Path 28380" d="M53.087,7.96H49.529v2.477h3.209v.939H49.529v2.477h3.558v.961H48.525V7h4.562Z" transform="translate(1.68 -6.824)"/>
    <path id="Path_28381" data-name="Path 28381" d="M53.087,7.96H49.529v2.477h3.209v.939H49.529v2.477h3.558v.961H48.525V7h4.562Z" transform="translate(1.68 -6.824)" stroke="#fff" stroke-miterlimit="10" stroke-width="0.2"/>
    <path id="Path_28382" data-name="Path 28382" d="M56.018,14.814h-1V7.96H52.832V7H58.2v.96H56.018Z" transform="translate(2.982 -6.824)"/>
    <path id="Path_28383" data-name="Path 28383" d="M56.018,14.814h-1V7.96H52.832V7H58.2v.96H56.018Z" transform="translate(2.982 -6.824)" stroke="#fff" stroke-miterlimit="10" stroke-width="0.2"/>
    <rect id="Rectangle_1084" data-name="Rectangle 1084" width="1.004" height="7.814" transform="translate(65.068 0.176)"/>
    <rect id="Rectangle_1085" data-name="Rectangle 1085" width="1.004" height="7.814" transform="translate(65.068 0.176)" stroke="#fff" stroke-miterlimit="10" stroke-width="0.2"/>
    <path id="Path_28384" data-name="Path 28384" d="M64.868,14.814H63.863V7.96H61.681V7h5.369v.96H64.868Z" transform="translate(5.657 -6.824)"/>
    <path id="Path_28385" data-name="Path 28385" d="M64.868,14.814H63.863V7.96H61.681V7h5.369v.96H64.868Z" transform="translate(5.657 -6.824)" stroke="#fff" stroke-miterlimit="10" stroke-width="0.2"/>
    <path id="Path_28386" data-name="Path 28386" d="M75.206,13.844a4.054,4.054,0,0,1-5.729,0,3.99,3.99,0,0,1-1.151-2.9,4,4,0,0,1,1.151-2.9,4.045,4.045,0,0,1,5.723.005,4,4,0,0,1,1.156,2.892,4,4,0,0,1-1.151,2.9m-4.988-.654a3.006,3.006,0,0,0,4.245,0,3.06,3.06,0,0,0,.869-2.242A3.058,3.058,0,0,0,74.464,8.7a3,3,0,0,0-4.245,0,3.062,3.062,0,0,0-.867,2.242,3.064,3.064,0,0,0,.867,2.242" transform="translate(7.665 -6.865)"/>
    <path id="Path_28387" data-name="Path 28387" d="M75.206,13.844a4.054,4.054,0,0,1-5.729,0,3.99,3.99,0,0,1-1.151-2.9,4,4,0,0,1,1.151-2.9,4.045,4.045,0,0,1,5.723.005,4,4,0,0,1,1.156,2.892A4,4,0,0,1,75.206,13.844Zm-4.988-.654a3.006,3.006,0,0,0,4.245,0,3.06,3.06,0,0,0,.869-2.242A3.058,3.058,0,0,0,74.464,8.7a3,3,0,0,0-4.245,0,3.062,3.062,0,0,0-.867,2.242A3.064,3.064,0,0,0,70.218,13.19Z" transform="translate(7.665 -6.865)" stroke="#fff" stroke-miterlimit="10" stroke-width="0.2"/>
    <path id="Path_28388" data-name="Path 28388" d="M75.575,14.814V7H76.8l3.8,6.079h.043L80.6,11.572V7h1v7.814H80.551L76.578,8.44h-.043l.043,1.507v4.867Z" transform="translate(9.856 -6.824)"/>
    <path id="Path_28389" data-name="Path 28389" d="M75.575,14.814V7H76.8l3.8,6.079h.043L80.6,11.572V7h1v7.814H80.551L76.578,8.44h-.043l.043,1.507v4.867Z" transform="translate(9.856 -6.824)" stroke="#fff" stroke-miterlimit="10" stroke-width="0.2"/>
    <path id="Path_28390" data-name="Path 28390" d="M76.326,23.173a5.539,5.539,0,1,0,5.559,5.54,5.46,5.46,0,0,0-5.559-5.54m0,8.9A3.2,3.2,0,0,1,73.2,28.713a3.134,3.134,0,1,1,6.252,0,3.2,3.2,0,0,1-3.125,3.356M64.2,23.173a5.539,5.539,0,1,0,5.561,5.54,5.46,5.46,0,0,0-5.561-5.54m0,8.9a3.2,3.2,0,0,1-3.125-3.356,3.134,3.134,0,1,1,6.252,0A3.2,3.2,0,0,1,64.2,32.069m-14.426-7.2v2.349h5.622a4.9,4.9,0,0,1-1.279,2.957A5.757,5.757,0,0,1,49.77,31.9a6.252,6.252,0,0,1,0-12.5,5.989,5.989,0,0,1,4.238,1.677l1.658-1.656a8.2,8.2,0,0,0-5.9-2.371,8.6,8.6,0,1,0,0,17.2,7.865,7.865,0,0,0,6-2.413,7.764,7.764,0,0,0,2.035-5.5,7.591,7.591,0,0,0-.126-1.468Zm59,1.824a5.148,5.148,0,0,0-4.742-3.525,5.264,5.264,0,0,0-5.223,5.54,5.42,5.42,0,0,0,5.5,5.539A5.511,5.511,0,0,0,108.92,31.8l-1.888-1.259a3.165,3.165,0,0,1-2.728,1.531,2.819,2.819,0,0,1-2.685-1.677l7.406-3.064Zm-7.553,1.847a3.038,3.038,0,0,1,2.895-3.231,2.143,2.143,0,0,1,2.056,1.175ZM95.2,33.915h2.434V17.634H95.2Zm-3.986-9.5h-.083a3.839,3.839,0,0,0-2.916-1.238,5.544,5.544,0,0,0,0,11.078,3.773,3.773,0,0,0,2.916-1.259h.083v.8c0,2.12-1.132,3.252-2.957,3.252a3.064,3.064,0,0,1-2.791-1.972l-2.119.882a5.278,5.278,0,0,0,4.91,3.273c2.853,0,5.266-1.679,5.266-5.769V23.509H91.212Zm-2.789,7.657a3.178,3.178,0,0,1-3.084-3.335,3.2,3.2,0,0,1,3.084-3.378,3.121,3.121,0,0,1,2.957,3.378,3.094,3.094,0,0,1-2.957,3.335m31.751-14.433H114.35v16.28h2.429V27.748h3.394a5.064,5.064,0,1,0,0-10.112m.063,7.846h-3.456V19.9h3.456a2.791,2.791,0,1,1,0,5.582m15.018-2.338a4.564,4.564,0,0,0-4.337,2.491l2.158.9a2.3,2.3,0,0,1,2.22-1.194,2.339,2.339,0,0,1,2.555,2.094V27.6a5.38,5.38,0,0,0-2.534-.628c-2.325,0-4.692,1.278-4.692,3.665a3.761,3.761,0,0,0,4.042,3.581,3.428,3.428,0,0,0,3.1-1.591h.083v1.257H140.2V27.646c0-2.89-2.157-4.5-4.942-4.5m-.293,8.922c-.8,0-1.907-.4-1.907-1.383,0-1.257,1.382-1.737,2.576-1.737a4.335,4.335,0,0,1,2.22.544,2.946,2.946,0,0,1-2.89,2.576M148.741,23.5l-2.786,7.058h-.083L142.981,23.5h-2.618l4.335,9.865-2.472,5.488h2.534L151.443,23.5ZM126.853,33.915h2.43V17.636h-2.43Z" transform="translate(-0.581 -3.788)"/>
    <g id="Group_425" data-name="Group 425" transform="translate(0.001 0.781)">
      <g id="Group_424" data-name="Group 424" clip-path="url(#clip-path)">
        <rect id="Rectangle_1087" data-name="Rectangle 1087" width="34.989" height="34.989" transform="translate(-16.325 16.325) rotate(-45)" fill="url(#linear-gradient)"/>
      </g>
    </g>
    <g id="Group_427" data-name="Group 427" transform="translate(16.834 11.537)">
      <g id="Group_426" data-name="Group 426" clip-path="url(#clip-path-2)">
        <rect id="Rectangle_1088" data-name="Rectangle 1088" width="13.692" height="11.141" transform="translate(0 0)" fill="url(#linear-gradient-2)"/>
      </g>
    </g>
    <g id="Group_429" data-name="Group 429" transform="translate(0.603 17.106)">
      <g id="Group_428" data-name="Group 428" clip-path="url(#clip-path-3)">
        <rect id="Rectangle_1089" data-name="Rectangle 1089" width="27.346" height="27.346" transform="translate(-8.472 8.472) rotate(-45)" fill="url(#linear-gradient-3)"/>
      </g>
    </g>
    <g id="Group_431" data-name="Group 431" transform="translate(0.603 0.358)">
      <g id="Group_430" data-name="Group 430" clip-path="url(#clip-path-4)">
        <rect id="Rectangle_1090" data-name="Rectangle 1090" width="27.208" height="27.208" transform="translate(-8.374 8.374) rotate(-45)" fill="url(#linear-gradient-4)"/>
      </g>
    </g>
    <g id="Group_433" data-name="Group 433" transform="translate(0.602 22.486)">
      <g id="Group_432" data-name="Group 432" clip-path="url(#clip-path-5)">
        <path id="Path_28395" data-name="Path 28395" d="M32.044,24.132l-18.9,10.74a2.168,2.168,0,0,1-2.61.014l-.1.1.1.1h0a2.168,2.168,0,0,0,2.61-.014L32.166,24.253Z" transform="translate(-10.435 -24.132)"/>
      </g>
    </g>
    <g id="Group_436" data-name="Group 436" transform="translate(0 31.317)">
      <g id="Group_435" data-name="Group 435" clip-path="url(#clip-path-6)">
        <path id="Path_28396" data-name="Path 28396" d="M10.575,32.743a2.608,2.608,0,0,1-.6-1.83v.19a2.608,2.608,0,0,0,.6,1.83l.1-.1Z" transform="translate(-9.973 -30.914)"/>
      </g>
    </g>
    <g id="Group_439" data-name="Group 439" transform="translate(22.212 17.106)">
      <g id="Group_438" data-name="Group 438" clip-path="url(#clip-path-7)">
        <path id="Path_28397" data-name="Path 28397" d="M33.522,21.691,27.029,25.38l.121.121,6.372-3.62A2.283,2.283,0,0,0,34.887,20a2.424,2.424,0,0,1-1.365,1.689" transform="translate(-27.029 -20.001)"/>
      </g>
    </g>
    <g id="Group_442" data-name="Group 442" transform="translate(0 0.358)">
      <g id="Group_441" data-name="Group 441" clip-path="url(#clip-path-8)">
        <path id="Path_28398" data-name="Path 28398" d="M13.281,7.769,38.677,22.2a2.42,2.42,0,0,1,1.365,1.69,2.282,2.282,0,0,0-1.365-1.88L13.281,7.579C11.46,6.545,9.972,7.4,9.972,9.488v.19c0-2.084,1.488-2.943,3.309-1.909" transform="translate(-9.973 -7.141)" fill="#fff"/>
      </g>
    </g>
  </g>
</svg>
