<svg xmlns="http://www.w3.org/2000/svg" xmlns:xlink="http://www.w3.org/1999/xlink" width="194.83" height="59.419" viewBox="0 0 194.83 59.419">
  <defs>
    <linearGradient id="linear-gradient" x1="0.115" y1="0.111" x2="0.856" y2="0.884" gradientUnits="objectBoundingBox">
      <stop offset="0" stop-color="#ffb1e7"/>
      <stop offset="0.498" stop-color="#8d9dff"/>
      <stop offset="1" stop-color="#5de2ff"/>
    </linearGradient>
  </defs>
  <g id="logo" transform="translate(0.515 0.563)">
    <path id="Union_2" data-name="Union 2" d="M13.737,54l5.236-5.261A21.913,21.913,0,0,0,50.88,31.221H29.545V24.047H57.863l.2,3.372A29.1,29.1,0,0,1,13.737,54ZM8.5,49.825A29.37,29.37,0,0,1,4.349,13.784L9.578,19.04a22.189,22.189,0,0,0,1.654,22.969l7.4-7.441A11.678,11.678,0,0,0,39.6,34.3h7.615A18.843,18.843,0,0,1,18.478,44.872l-7.453,7.49Zm4.93-31.278-7.454-7.49L8.5,8.52A29.062,29.062,0,0,1,33.638.358L33.7.369A29.027,29.027,0,0,1,46.38,6.112c.133.1.261.217.393.323l-5.086,5.111a21.851,21.851,0,0,0-9.2-4.109,21.969,21.969,0,0,0-16.2,3.831l7.411,7.43A11.752,11.752,0,0,0,17.53,31.324L11.883,37A19.093,19.093,0,0,1,13.431,18.547Zm18.053-.9c-.059-.013-.119-.02-.178-.032-.2-.039-.4-.078-.608-.107-.092-.013-.185-.019-.278-.029-.172-.021-.344-.043-.517-.054-.107-.008-.212-.008-.318-.014-.159-.007-.317-.016-.477-.016a11.737,11.737,0,0,0-2.188.2l-5.645-5.673a18.8,18.8,0,0,1,7.779-1.7v-.006c.033,0,.066,0,.1,0,.279,0,.558.015.838.029.149.007.3.009.449.02.281.021.561.055.842.088.148.018.3.03.445.051.266.038.531.09.8.14.159.03.321.054.479.088.246.053.489.119.733.182.175.045.351.084.525.133l.041.01v0a18.748,18.748,0,0,1,4.689,2.091c.245.153.486.313.724.477l-5.195,5.22a11.627,11.627,0,0,0-3.034-1.108Z" transform="translate(-0.002 0.006)" stroke="rgba(0,0,0,0)" stroke-miterlimit="10" stroke-width="1" fill="url(#linear-gradient)"/>
    <path id="Path_28424" data-name="Path 28424" d="M2.772-45.534c0,6.239,4.023,10.386,9.087,10.386a7.839,7.839,0,0,0,6.573-3.282v3.1c0,3.715-2.155,5.3-4.921,5.3-2.514,0-4.382-1.19-4.885-2.994H3.634c.5,4.58,4.418,7.394,10.021,7.394,6.537,0,9.841-4.292,9.841-9.7V-55.452H18.432v2.85a7.775,7.775,0,0,0-6.573-3.174C6.795-55.776,2.772-51.773,2.772-45.534Zm15.66.072c0,3.787-2.514,5.879-5.28,5.879-2.693,0-5.244-2.164-5.244-5.951s2.549-5.807,5.244-5.807c2.766,0,5.28,2.092,5.28,5.879Zm8.907,9.99h5.028V-62.16H27.339ZM44.795-51.628a4.428,4.428,0,0,1,4.741,4.292H40.09a4.628,4.628,0,0,1,4.705-4.292Zm9.446,9.882H48.818a4.1,4.1,0,0,1-3.987,2.417,4.664,4.664,0,0,1-4.777-4.616H54.6a11.849,11.849,0,0,0,.144-1.948c0-5.951-4.059-9.882-9.805-9.882-5.89,0-9.985,4-9.985,10.315,0,6.275,4.2,10.315,9.985,10.315a9.253,9.253,0,0,0,9.3-6.6Zm6.717,6.275h5.459l3.628-13.958,3.628,13.958H79.1l5.819-19.981H80.1l-3.52,15.185L72.846-55.452H67.531l-3.808,15.22L60.2-55.452H55.1ZM95.115-51.629a4.428,4.428,0,0,1,4.741,4.292H90.409A4.628,4.628,0,0,1,95.115-51.629Zm9.446,9.882H99.137A4.1,4.1,0,0,1,95.15-39.33a4.664,4.664,0,0,1-4.777-4.616H104.92a11.851,11.851,0,0,0,.144-1.948c0-5.951-4.059-9.882-9.805-9.882-5.89,0-9.985,4-9.985,10.315,0,6.275,4.2,10.315,9.985,10.315A9.253,9.253,0,0,0,104.561-41.747ZM116.2-51.629a4.428,4.428,0,0,1,4.741,4.292h-9.446A4.628,4.628,0,0,1,116.2-51.629Zm9.446,9.882H120.22a4.1,4.1,0,0,1-3.987,2.417,4.664,4.664,0,0,1-4.777-4.616H126a11.847,11.847,0,0,0,.144-1.948c0-5.951-4.059-9.882-9.805-9.882-5.89,0-9.985,4-9.985,10.315,0,6.275,4.2,10.315,9.985,10.315A9.251,9.251,0,0,0,125.643-41.747Z" transform="translate(68.166 73.197)" fill="#001179"/>
  </g>
</svg>
