<svg id="apple" xmlns="http://www.w3.org/2000/svg" width="23.072" height="28.358" viewBox="0 0 23.072 28.358">
  <path id="_Path_" data-name="&lt;Path&gt;" d="M29.242,22.213a6.445,6.445,0,0,1,3.069-5.407,6.6,6.6,0,0,0-5.2-2.81c-2.187-.23-4.307,1.309-5.421,1.309-1.136,0-2.852-1.286-4.7-1.248a6.922,6.922,0,0,0-5.825,3.552C8.649,21.97,10.528,28.379,12.94,31.9c1.207,1.726,2.618,3.654,4.464,3.586,1.806-.075,2.481-1.152,4.661-1.152,2.16,0,2.793,1.152,4.676,1.108,1.938-.031,3.159-1.734,4.324-3.476a14.275,14.275,0,0,0,1.977-4.027A6.228,6.228,0,0,1,29.242,22.213Z" transform="translate(-9.972 -7.133)"/>
  <path id="_Path_2" data-name="&lt;Path&gt;" d="M23.019,13.266A6.345,6.345,0,0,0,24.47,8.72a6.456,6.456,0,0,0-4.177,2.161A6.038,6.038,0,0,0,18.8,15.259,5.338,5.338,0,0,0,23.019,13.266Z" transform="translate(-7.306 -8.72)"/>
</svg>
