<svg xmlns="http://www.w3.org/2000/svg" width="41.523" height="46.571" viewBox="0 0 41.523 46.571">
  <path id="challenge" d="M41.079-.024a1.452,1.452,0,0,0-.773.242l-8.774,4.4v0a1.456,1.456,0,0,0,0,2.6l8.12,4.06v5.269H36.742a1.457,1.457,0,0,0-1.462,1.449V45.087a1.456,1.456,0,0,0,1.462,1.46h8.719a1.453,1.453,0,0,0,1.46-1.46V17.994a1.455,1.455,0,0,0-1.46-1.449H42.552V1.447A1.453,1.453,0,0,0,41.079-.024ZM21.656,22.367a1.455,1.455,0,0,0-1.311,1.449V45.087a1.454,1.454,0,0,0,1.449,1.46h8.732a1.453,1.453,0,0,0,1.46-1.46V23.816a1.454,1.454,0,0,0-1.46-1.449H21.794c-.045,0-.093,0-.138,0ZM6.708,28.186A1.454,1.454,0,0,0,5.4,29.635V45.087a1.453,1.453,0,0,0,1.46,1.46H15.59a1.454,1.454,0,0,0,1.449-1.46V29.635a1.455,1.455,0,0,0-1.449-1.449H6.859a1.045,1.045,0,0,0-.151,0Z" transform="translate(-5.398 0.024)" fill="#001179"/>
</svg>
