<svg xmlns="http://www.w3.org/2000/svg" width="26" height="19" viewBox="0 0 26 19">
  <path id="envelope" d="M10.517,18.617H29.2a3.7,3.7,0,0,1,3.7,3.619V33.908a3.783,3.783,0,0,1-3.7,3.709H10.517a3.7,3.7,0,0,1-3.611-3.709V22.236A3.626,3.626,0,0,1,10.517,18.617Zm0,3.709a.672.672,0,0,1,.993-.905l8.4,7.6,8.4-7.6a.64.64,0,1,1,.9.905l-6.139,5.609,6.23,5.881c.632.724-.362,1.719-.993,1.086l-6.23-6.062-1.716,1.538a.707.707,0,0,1-.993,0l-1.716-1.538L11.419,34.9c-.632.633-1.535-.362-.9-1.086l6.139-5.881-6.139-5.609Z" transform="translate(-6.906 -18.617)" fill="#fff" fill-rule="evenodd"/>
</svg>
