<svg xmlns="http://www.w3.org/2000/svg" width="21.836" height="14.129" viewBox="0 0 21.836 14.129">
  <g id="eye" transform="translate(-14.582 -27.082)">
    <path id="Path_19081" data-name="Path 19081" d="M25.5,27.082c-6.422,0-10.918,7.065-10.918,7.065s3.275,7.065,10.918,7.065c7.707,0,10.918-7.065,10.918-7.065S31.987,27.082,25.5,27.082Zm0,11.56a4.5,4.5,0,1,1,4.5-4.5A4.467,4.467,0,0,1,25.5,38.642Z" fill="#acb6d6"/>
    <path id="Path_19082" data-name="Path 19082" d="M47.6,45.677a1.927,1.927,0,1,1-1.927-1.927A1.926,1.926,0,0,1,47.6,45.677" transform="translate(-20.177 -11.53)" fill="#acb6d6"/>
  </g>
</svg>
