<svg xmlns="http://www.w3.org/2000/svg" width="16" height="16" viewBox="0 0 16 16">
  <g id="filter" transform="translate(-6.253 -6.738)">
    <path id="Path_19074" data-name="Path 19074" d="M11.757,68.8A2.248,2.248,0,0,0,9.6,70.483H6.828a.568.568,0,0,0-.406.169.584.584,0,0,0,0,.819.573.573,0,0,0,.405.168H9.6a2.219,2.219,0,0,0,4.307,0h7.774a.574.574,0,0,0,.57-.576.581.581,0,0,0-.166-.41.567.567,0,0,0-.4-.17H13.908A2.245,2.245,0,0,0,11.757,68.8Z" transform="translate(-0.001 -50.586)" fill="#fff"/>
    <path id="Path_19075" data-name="Path 19075" d="M16.2,36.938a2.245,2.245,0,0,0-2.153,1.682H6.828a.569.569,0,0,0-.405.168.583.583,0,0,0,0,.819.567.567,0,0,0,.406.168h7.218a2.217,2.217,0,0,0,4.3,0h3.334a.568.568,0,0,0,.4-.17.58.58,0,0,0-.4-.986H18.351A2.245,2.245,0,0,0,16.2,36.938Z" transform="translate(-0.001 -24.615)" fill="#fff"/>
    <path id="Path_19076" data-name="Path 19076" d="M10.091,6.738A2.216,2.216,0,0,0,7.97,8.39H6.827a.568.568,0,0,0-.406.169.583.583,0,0,0,0,.818.571.571,0,0,0,.405.168H7.968a2.189,2.189,0,0,0,4.239.028l9.476-.028a.572.572,0,0,0,.4-.17.579.579,0,0,0-.4-.985l-9.459.028a2.22,2.22,0,0,0-2.132-1.681Z" transform="translate(0 0)" fill="#fff"/>
  </g>
</svg>
