<svg xmlns="http://www.w3.org/2000/svg" width="86.514" height="86.859" viewBox="0 0 86.514 86.859">
  <path id="glewee" d="M20.207,79.437l7.7-7.74A32.236,32.236,0,0,0,74.848,45.931H43.462V35.378H85.12l.3,4.961a42.813,42.813,0,0,1-65.208,39.1ZM12.5,73.3A43.206,43.206,0,0,1,6.4,20.281l7.692,7.731A32.642,32.642,0,0,0,16.523,61.8L27.4,50.855a17.179,17.179,0,0,0,30.849-.4h11.2A27.72,27.72,0,0,1,27.181,66.013L16.217,77.032Zm7.252-46.013L8.792,16.269,12.5,12.536A42.753,42.753,0,0,1,49.484.529l.1.017A42.7,42.7,0,0,1,68.227,8.994c.2.153.384.32.578.475l-7.482,7.519a32.145,32.145,0,0,0-13.541-6.044A32.318,32.318,0,0,0,23.952,16.58l10.9,10.93a17.288,17.288,0,0,0-9.066,18.574L17.48,54.432A28.088,28.088,0,0,1,19.757,27.288Zm26.557-1.331c-.086-.019-.175-.029-.263-.047-.3-.058-.595-.114-.9-.157-.135-.019-.273-.028-.409-.043-.253-.031-.506-.063-.76-.08-.157-.011-.311-.012-.468-.02-.233-.011-.467-.024-.7-.024a17.266,17.266,0,0,0-3.219.3l-8.3-8.345a27.662,27.662,0,0,1,11.444-2.5v-.009c.049,0,.1.006.146.006.41,0,.821.022,1.233.043.219.01.44.013.66.029.413.03.826.081,1.238.13.218.027.438.044.654.075.392.055.782.133,1.172.206.234.045.472.079.7.129.361.079.719.175,1.078.268.257.066.517.123.772.2.02.006.04.009.06.015v0a27.581,27.581,0,0,1,6.9,3.077c.36.225.714.46,1.065.7l-7.642,7.679a17.1,17.1,0,0,0-4.464-1.63Z" transform="translate(0.52 0.519)" fill="#001179" stroke="rgba(0,0,0,0)" stroke-miterlimit="10" stroke-width="1"/>
</svg>
