<svg xmlns="http://www.w3.org/2000/svg" xmlns:xlink="http://www.w3.org/1999/xlink" width="24" height="24" viewBox="0 0 24 24">
  <defs>
    <linearGradient id="linear-gradient" x1="0.028" y1="0.036" x2="0.951" y2="0.961" gradientUnits="objectBoundingBox">
      <stop offset="0" stop-color="#ffb1e7"/>
      <stop offset="0.498" stop-color="#8d9dff"/>
      <stop offset="1" stop-color="#5de2ff"/>
    </linearGradient>
  </defs>
  <path id="grid-4" d="M0,34.571A2.571,2.571,0,0,1,2.571,32H7.714a2.572,2.572,0,0,1,2.571,2.571v5.143a2.572,2.572,0,0,1-2.571,2.571H2.571A2.572,2.572,0,0,1,0,39.714Zm2.571,5.143H7.714V34.571H2.571ZM0,48.286a2.572,2.572,0,0,1,2.571-2.571H7.714a2.572,2.572,0,0,1,2.571,2.571v5.143A2.572,2.572,0,0,1,7.714,56H2.571A2.572,2.572,0,0,1,0,53.429Zm2.571,5.143H7.714V48.286H2.571ZM21.429,32A2.572,2.572,0,0,1,24,34.571v5.143a2.572,2.572,0,0,1-2.571,2.571H16.286a2.572,2.572,0,0,1-2.571-2.571V34.571A2.572,2.572,0,0,1,16.286,32Zm0,2.571H16.286v5.143h5.143ZM13.714,48.286a2.572,2.572,0,0,1,2.571-2.571h5.143A2.572,2.572,0,0,1,24,48.286v5.143A2.572,2.572,0,0,1,21.429,56H16.286a2.572,2.572,0,0,1-2.571-2.571Zm2.571,5.143h5.143V48.286H16.286Z" transform="translate(0 -32)" fill="url(#linear-gradient)"/>
</svg>
