<svg xmlns="http://www.w3.org/2000/svg" width="10.5" height="10.5" viewBox="0 0 10.5 10.5">
  <path id="instagram" d="M5.176,34.383a2.692,2.692,0,1,0,2.691,2.692A2.687,2.687,0,0,0,5.176,34.383Zm0,4.442a1.75,1.75,0,1,1,1.75-1.75A1.753,1.753,0,0,1,5.176,38.825Zm3.429-4.552a.628.628,0,1,1-.628-.628A.626.626,0,0,1,8.605,34.273Zm1.783.637a3.108,3.108,0,0,0-.848-2.2,3.127,3.127,0,0,0-2.2-.848c-.867-.049-3.464-.049-4.331,0a3.122,3.122,0,0,0-2.2.846,3.118,3.118,0,0,0-.848,2.2c-.049.867-.049,3.465,0,4.332a3.108,3.108,0,0,0,.848,2.2,3.131,3.131,0,0,0,2.2.848c.867.049,3.464.049,4.331,0a3.106,3.106,0,0,0,2.2-.848,3.128,3.128,0,0,0,.848-2.2C10.437,38.373,10.437,35.777,10.388,34.91Zm-1.12,5.26a1.772,1.772,0,0,1-1,1,11.567,11.567,0,0,1-3.094.211,11.657,11.657,0,0,1-3.094-.211,1.772,1.772,0,0,1-1-1,11.574,11.574,0,0,1-.211-3.1,11.664,11.664,0,0,1,.211-3.1,1.772,1.772,0,0,1,1-1,11.567,11.567,0,0,1,3.094-.211,11.657,11.657,0,0,1,3.094.211,1.772,1.772,0,0,1,1,1,11.574,11.574,0,0,1,.211,3.1A11.568,11.568,0,0,1,9.268,40.17Z" transform="translate(0.075 -31.825)" fill="#fff"/>
</svg>
