<svg xmlns="http://www.w3.org/2000/svg" xmlns:xlink="http://www.w3.org/1999/xlink" width="21.776" height="24.732" viewBox="0 0 21.776 24.732">
  <defs>
    <linearGradient id="linear-gradient" x2="0.868" y2="1.16" gradientUnits="objectBoundingBox">
      <stop offset="0" stop-color="#ffb1e7"/>
      <stop offset="0.498" stop-color="#8d9dff"/>
      <stop offset="1" stop-color="#5de2ff"/>
    </linearGradient>
  </defs>
  <path id="telephone" d="M3.5,24.732a3.5,3.5,0,0,1-3.5-3.5V6.455a3.5,3.5,0,0,1,3.5-3.5h.933V1.283A1.283,1.283,0,1,1,7,1.283V2.956h7.777V1.283a1.283,1.283,0,1,1,2.566,0V2.956h.933a3.5,3.5,0,0,1,3.5,3.5V21.232a3.5,3.5,0,0,1-3.5,3.5Zm12-2.566h2.781a.934.934,0,0,0,.933-.933v-1.3H15.5Zm-6.649,0H12.93V19.93H8.847Zm-6.28-.933a.934.934,0,0,0,.933.933H6.28V19.93H2.566ZM15.5,17.363H19.21V14.757H15.5Zm-6.649,0H12.93V14.757H8.847Zm-6.28,0H6.28V14.757H2.566ZM15.5,12.191H19.21V9.955H15.5Zm-6.649,0H12.93V9.955H8.847Zm-6.28,0H6.28V9.955H2.566Zm0-5.736v.933H19.21V6.455a.934.934,0,0,0-.933-.933H3.5A.934.934,0,0,0,2.566,6.455Z" fill="url(#linear-gradient)"/>
</svg>
