<svg xmlns="http://www.w3.org/2000/svg" xmlns:xlink="http://www.w3.org/1999/xlink" width="24.034" height="27.296" viewBox="0 0 24.034 27.296">
  <defs>
    <linearGradient id="linear-gradient" x2="0.868" y2="1.16" gradientUnits="objectBoundingBox">
      <stop offset="0" stop-color="#ffb1e7"/>
      <stop offset="0.498" stop-color="#8d9dff"/>
      <stop offset="1" stop-color="#5de2ff"/>
    </linearGradient>
  </defs>
  <path id="notification" d="M8.372,24.719a1.426,1.426,0,0,1,.839-1.8,1.3,1.3,0,0,1,.519-.109,1.408,1.408,0,0,1,1.315.965,1.029,1.029,0,0,0,.926.684,1.054,1.054,0,0,0,1.018-.684,1.409,1.409,0,0,1,1.315-.965,1.3,1.3,0,0,1,.519.109,1.426,1.426,0,0,1,.84,1.794,3.835,3.835,0,0,1-1.4,1.855,3.926,3.926,0,0,1-2.293.724A3.839,3.839,0,0,1,8.372,24.719ZM2.857,22.4A2.862,2.862,0,0,1,0,19.545a2.763,2.763,0,0,1,.837-2.02l0,0,.138-.136a7.8,7.8,0,0,0,1.689-2.532,7.766,7.766,0,0,0,.594-2.984V10.386a8.754,8.754,0,0,1,7.31-8.636l-.017-.334A1.453,1.453,0,0,1,11.971,0a1.424,1.424,0,0,1,1.462,1.416v.329a8.754,8.754,0,0,1,7.339,8.641v1.483a7.817,7.817,0,0,0,2.286,5.519l.137.137a2.8,2.8,0,0,1,.838,2.02A2.862,2.862,0,0,1,21.175,22.4ZM7.8,6.2a5.873,5.873,0,0,0-1.751,4.187v1.483a10.785,10.785,0,0,1-.785,4.065A10.339,10.339,0,0,1,2.98,19.389l0,0-.138.136a.372.372,0,0,0-.025.028.1.1,0,0,0,.045.015H21.175a.025.025,0,0,0,.026-.026.034.034,0,0,0-.008-.018l-.137-.137a10.615,10.615,0,0,1-3.116-7.519V10.386A5.868,5.868,0,0,0,16.2,6.2a5.953,5.953,0,0,0-4.229-1.735A5.884,5.884,0,0,0,7.8,6.2Z" fill="url(#linear-gradient)"/>
</svg>
