<svg xmlns="http://www.w3.org/2000/svg" xmlns:xlink="http://www.w3.org/1999/xlink" width="75.927" height="49.205" viewBox="0 0 75.927 49.205">
  <defs>
    <linearGradient id="linear-gradient" x1="0.913" y1="-0.5" x2="0" y2="1.492" gradientUnits="objectBoundingBox">
      <stop offset="0" stop-color="#ef66c5"/>
      <stop offset="0.498" stop-color="#364ddd"/>
      <stop offset="1" stop-color="#00bfe8"/>
    </linearGradient>
  </defs>
  <path id="quote" d="M61.438,47.909c0,9.6,14.657,25.016,19.582,30.32a4.843,4.843,0,0,0,6.948.128l.128-.128a4.862,4.862,0,0,0,.128-6.568,73.327,73.327,0,0,1-5.813-6.82A17.6,17.6,0,0,0,95.928,47.909,17.334,17.334,0,0,0,78.621,30.6,17.145,17.145,0,0,0,61.438,47.909Zm-24-17.307a17.3,17.3,0,0,1,3.539,34.233c1.895,2.4,3.79,4.673,5.813,6.82a4.73,4.73,0,0,1-.128,6.568l-.128.128a4.737,4.737,0,0,1-6.948-.128C34.657,73.042,20,57.507,20,47.9A17.443,17.443,0,0,1,37.436,30.6Z" transform="translate(-20 -30.602)" fill="url(#linear-gradient)"/>
</svg>
