<svg xmlns="http://www.w3.org/2000/svg" width="20" height="22" viewBox="0 0 20 22">
  <path id="share" d="M31.355,30.105a3.468,3.468,0,0,0-1.935.647L20.968,25.9a2.854,2.854,0,0,1,.064-.324c0-.064,0-.258-.064-.324L29.42,20.4a3.31,3.31,0,0,0,1.935.647,3.235,3.235,0,1,0-3.226-3.235.589.589,0,0,0,.064.324l-8.45,4.853a3.164,3.164,0,0,0-1.935-.647,3.235,3.235,0,0,0,0,6.47,3.468,3.468,0,0,0,1.935-.647l8.451,4.852c0,.13-.064.194-.064.324a3.226,3.226,0,1,0,3.225-3.238Z" transform="translate(-14.582 -14.578)" fill="#fff"/>
</svg>
