<svg xmlns="http://www.w3.org/2000/svg" width="68" height="60" viewBox="0 0 68 60">
  <path id="thumbs-up" d="M17,87.594v-30a4.167,4.167,0,0,0-4.25-4.165H4.25A4.244,4.244,0,0,0,0,57.594V87.473a4.167,4.167,0,0,0,4.25,4.165h8.5A3.868,3.868,0,0,0,17,87.594ZM68,57.728A6.4,6.4,0,0,0,61.625,51.3H42.168c3.024-5.077,4.585-10.832,4.585-12.86A6.451,6.451,0,0,0,40.176,32c-8.384,0-3.5,10.2-14.37,18.964l-2.165,1.741a6.475,6.475,0,0,0-2.377,5.009h0L21.25,79.143a6.445,6.445,0,0,0,2.55,5.142l4.534,3.427A21.074,21.074,0,0,0,41.079,92h7.8a6.4,6.4,0,0,0,6.375-6.426,6.473,6.473,0,0,0-.165-1.413,6.385,6.385,0,0,0,3.467-9.422,6.406,6.406,0,0,0,3.509-10.626A6.387,6.387,0,0,0,68,57.728Z" transform="translate(0 -32)" fill="#fff"/>
</svg>
