<svg xmlns="http://www.w3.org/2000/svg" width="8.625" height="9.75" viewBox="0 0 8.625 9.75">
  <path id="tiktok" d="M8.753,4a4.076,4.076,0,0,1-2.364-.748v3.4a3.1,3.1,0,0,1-2.034,2.9A3.153,3.153,0,0,1,.9,8.687,3.07,3.07,0,0,1,.505,5.18,3.14,3.14,0,0,1,3.688,3.587V5.3a1.446,1.446,0,0,0-1.6.529A1.409,1.409,0,0,0,2.1,7.5a1.446,1.446,0,0,0,1.606.51,1.423,1.423,0,0,0,.99-1.351V0H6.389a2.284,2.284,0,0,0,.036.422h0A2.326,2.326,0,0,0,7.463,1.95a2.357,2.357,0,0,0,1.29.384Z" transform="translate(-0.128)" fill="#fff"/>
</svg>
