<svg xmlns="http://www.w3.org/2000/svg" width="9.757" height="7.983" viewBox="0 0 9.757 7.983">
  <path id="twitter" d="M9.736,4.321a4.052,4.052,0,0,1-1.148.317,2.024,2.024,0,0,0,.88-1.114A4.155,4.155,0,0,1,8.2,4.007a1.991,1.991,0,0,0-2.4-.4A2.018,2.018,0,0,0,4.787,5.841a5.648,5.648,0,0,1-4.122-2.1A1.992,1.992,0,0,0,.393,4.757a2.015,2.015,0,0,0,.889,1.675,1.978,1.978,0,0,1-.9-.251v.024a2.012,2.012,0,0,0,1.6,1.976,2,2,0,0,1-.9.035,2.011,2.011,0,0,0,1.872,1.4,4,4,0,0,1-2.48.86A3.941,3.941,0,0,1,0,10.448,5.686,5.686,0,0,0,8.76,5.629c0-.085,0-.171-.007-.258a4.019,4.019,0,0,0,1-1.042Z" transform="translate(0.003 -3.37)" fill="#fff"/>
</svg>
